<?xml version="1.0" standalone="no"?>
<!DOCTYPE svg PUBLIC "-//W3C//DTD SVG 20010904//EN"
 "http://www.w3.org/TR/2001/REC-SVG-20010904/DTD/svg10.dtd">
<svg version="1.0" xmlns="http://www.w3.org/2000/svg"
 width="1000.000000pt" height="1000.000000pt" viewBox="0 0 1000.000000 1000.000000"
 preserveAspectRatio="xMidYMid meet">
<metadata>
Created by potrace 1.14, written by Peter Selinger 2001-2017
</metadata>
<g transform="translate(0.000000,1000.000000) scale(0.100000,-0.100000)"
fill="#000000" stroke="none">
<path d="M4635 9994 c-341 -33 -516 -60 -754 -114 -702 -159 -1368 -476 -1946
-925 -188 -146 -404 -343 -402 -366 1 -20 3 -20 24 5 12 14 28 26 36 26 22 0
38 -24 27 -38 -6 -7 -2 -5 8 3 12 12 14 18 5 23 -8 5 -9 13 -3 22 8 13 10 12
10 -2 0 -22 1 -22 36 -3 36 19 55 19 48 1 -3 -7 2 -16 10 -19 9 -4 15 -3 13 1
-1 4 3 8 8 9 6 1 9 -5 9 -13 -1 -8 2 -14 7 -14 5 0 9 5 9 10 0 6 5 10 11 10 5
0 7 -6 3 -12 -4 -7 17 10 47 37 29 28 53 54 51 58 -1 5 1 6 6 3 5 -3 31 13 58
36 238 197 589 425 882 572 427 214 895 366 1367 445 427 71 985 81 1410 25
139 -18 145 -20 145 -49 0 -31 20 -43 27 -16 6 25 18 27 27 6 3 -8 0 -15 -6
-15 -6 0 -5 -7 5 -17 22 -26 25 -77 4 -97 -20 -20 -22 -37 -6 -53 7 -7 8 -13
0 -17 -10 -7 1 -45 22 -74 5 -7 11 -28 12 -47 2 -28 -2 -35 -17 -35 -20 0 -23
16 -8 40 15 24 -8 29 -61 12 -60 -19 -73 -42 -24 -42 49 0 52 -16 3 -23 -47
-6 -68 -28 -38 -39 11 -4 20 -14 20 -22 0 -19 66 -30 100 -16 15 6 41 10 56 8
27 -3 29 -5 26 -43 -5 -52 -7 -55 -44 -55 -18 0 -58 -5 -91 -12 -52 -11 -58
-14 -52 -33 4 -11 9 -32 12 -47 6 -34 23 -37 23 -5 0 12 4 28 9 35 10 16 21
-16 21 -60 0 -28 -21 -50 -28 -30 -5 17 -22 15 -22 -4 0 -12 9 -14 38 -12 35
3 37 5 37 38 1 19 7 50 15 68 16 34 31 44 24 15 -2 -10 0 -25 5 -33 8 -12 13
-12 29 4 19 17 20 17 27 -3 3 -12 4 -25 0 -31 -5 -8 -20 -83 -42 -207 -5 -32
-7 -33 -56 -33 -32 0 -57 6 -68 16 -16 15 -17 14 -12 -5 4 -17 1 -21 -18 -22
-13 -1 -30 -1 -36 0 -11 2 -12 -16 -4 -71 2 -15 67 -8 91 9 14 10 70 44 125
76 55 33 92 57 83 53 -10 -3 -18 -1 -18 5 0 6 -12 10 -27 9 -46 -3 -49 0 -20
16 26 14 132 22 144 11 2 -3 39 11 81 30 98 44 224 94 329 128 57 19 80 31 76
41 -6 17 42 30 60 16 7 -5 21 -6 32 -1 11 4 14 8 8 8 -7 1 -13 6 -13 12 0 8
25 9 83 4 93 -8 104 -12 84 -28 -10 -9 -12 -27 -9 -60 l4 -49 42 7 c74 11 129
11 133 -2 3 -9 -21 -13 -89 -15 l-93 -3 -3 -34 -3 -33 38 7 c73 13 128 11 128
-4 0 -10 -13 -15 -40 -16 -22 0 -59 -2 -81 -3 l-42 -2 -6 -107 c-4 -60 -13
-164 -21 -233 -7 -69 -11 -148 -9 -175 3 -36 2 -45 -5 -30 -9 20 -10 19 -10
-1 -1 -24 16 -34 59 -34 l29 0 -5 -87 c-3 -49 -9 -99 -13 -113 -4 -14 -6 -42
-3 -63 4 -38 5 -38 46 -35 l41 3 1 60 c2 96 15 166 31 172 8 3 19 16 23 29 5
13 20 26 35 29 14 3 35 7 48 10 18 3 25 14 33 47 l9 43 73 3 c68 3 72 2 72
-18 0 -50 12 -56 107 -55 49 1 94 4 100 8 5 4 13 32 16 63 3 31 11 62 16 67 6
6 11 21 11 34 0 19 4 22 28 17 25 -5 30 -1 55 43 24 43 27 46 33 26 4 -16 17
-24 41 -29 39 -7 39 -27 0 -32 -15 -2 -27 -10 -27 -18 0 -8 -4 -14 -10 -14 -5
0 -10 -6 -10 -14 0 -9 12 -16 32 -18 37 -4 51 -28 16 -28 -24 0 -67 -45 -69
-72 0 -7 -5 -1 -10 13 -6 16 -20 29 -34 31 -19 4 -24 0 -28 -21 -5 -26 20 -61
44 -61 6 0 8 -7 5 -16 -3 -9 -6 -31 -6 -50 0 -31 -2 -34 -31 -34 -16 0 -50 -5
-75 -11 -37 -10 -45 -15 -41 -31 4 -15 1 -18 -15 -12 -15 4 -19 2 -16 -7 3 -8
19 -19 37 -25 39 -13 56 -37 43 -61 -7 -11 -6 -23 1 -35 9 -14 8 -20 -8 -32
-11 -9 -15 -16 -10 -16 6 0 4 -4 -3 -9 -8 -5 -14 -28 -14 -55 -1 -43 -3 -45
-18 -31 -24 22 -50 19 -50 -5 0 -11 -4 -20 -9 -20 -4 0 -7 -19 -6 -42 1 -24
-2 -46 -8 -50 -25 -15 13 -35 70 -35 100 -1 203 -15 203 -27 -1 -10 -14 -115
-26 -196 -3 -19 -9 -65 -13 -102 -7 -66 -7 -68 15 -68 13 0 35 -5 51 -11 15
-6 87 -12 160 -13 121 -1 134 -3 156 -24 28 -27 101 -31 111 -7 3 10 20 15 48
16 l43 1 -37 10 c-44 12 -51 39 -15 56 17 8 18 11 5 11 -27 1 -31 20 -6 30 17
7 19 10 6 10 -10 1 -18 6 -18 11 0 34 23 211 31 244 l10 39 197 -5 c121 -3
205 -9 218 -16 19 -10 20 -15 10 -46 -10 -34 -12 -35 -66 -38 l-55 -3 -3 -48
c-2 -32 1 -49 10 -52 7 -2 33 -10 58 -16 l45 -12 -47 -10 c-48 -9 -61 -23 -33
-33 9 -4 15 -11 14 -18 -4 -36 6 -39 171 -52 41 -3 77 -8 79 -10 12 -12 -19
-15 -153 -15 l-146 0 0 -37 -1 -37 -15 28 c-8 15 -13 35 -12 45 3 14 -4 16
-37 14 -22 -2 -45 -10 -52 -18 -22 -30 16 -84 60 -84 31 0 44 -20 29 -46 -13
-24 -4 -54 16 -47 9 4 13 2 9 -4 -4 -6 26 -12 82 -16 115 -8 145 -19 135 -50
-3 -12 -7 -23 -8 -23 0 -1 -19 -4 -41 -8 -22 -3 -41 -5 -42 -6 -2 0 -3 -10 -3
-22 0 -17 -3 -19 -12 -10 -7 7 -20 12 -30 12 -20 0 -11 -26 122 -365 17 -44
37 -99 45 -121 8 -23 22 -55 30 -70 8 -16 15 -36 15 -44 1 -38 15 -43 71 -25
30 10 59 21 64 25 6 3 31 14 56 24 38 14 51 15 73 5 14 -7 26 -16 26 -22 0 -5
7 -23 15 -40 7 -18 33 -81 56 -142 54 -142 97 -253 159 -410 17 -44 35 -93 41
-110 5 -16 13 -39 19 -50 5 -11 28 -69 50 -130 48 -125 57 -145 79 -162 11 -8
12 -12 4 -13 -9 0 -7 -15 8 -52 11 -29 29 -81 41 -115 15 -48 24 -63 39 -63
28 0 24 -11 -26 -65 l-46 -50 -18 22 -19 23 -71 -27 c-71 -26 -72 -26 -65 -57
4 -17 17 -55 30 -84 37 -84 40 -115 12 -144 -19 -22 -161 -84 -255 -113 -44
-13 -59 2 -88 83 -15 42 -34 93 -43 113 l-15 36 -62 -22 c-34 -13 -76 -30 -93
-39 -57 -30 -118 -17 -135 28 -6 15 -10 17 -20 7 -9 -10 -8 -15 6 -25 18 -14
23 -36 8 -36 -5 0 -12 -8 -14 -17 -4 -16 -5 -16 -6 -2 0 9 -8 20 -16 23 -10 3
-15 1 -14 -7 2 -6 -3 -32 -10 -56 -7 -23 -10 -45 -8 -48 3 -2 1 -19 -4 -36
-13 -43 -41 -198 -41 -219 1 -10 -6 -18 -14 -18 -8 0 -14 9 -14 20 0 11 3 20
8 20 4 0 6 18 4 40 -3 26 0 40 7 40 7 0 12 16 12 38 -1 58 10 132 19 132 4 0
8 15 8 34 0 18 5 43 11 55 6 11 9 31 5 45 -3 13 -1 27 5 30 6 4 11 21 11 37 0
26 3 29 20 24 20 -6 20 -6 1 37 -10 24 -24 59 -31 78 -6 19 -35 94 -62 165
-28 72 -69 180 -93 240 -23 61 -62 161 -86 224 -24 62 -49 115 -55 118 -7 2
-37 -7 -68 -21 -31 -14 -63 -26 -71 -26 -21 0 -20 -3 25 -113 22 -53 40 -108
40 -120 0 -23 -27 -57 -45 -57 -21 0 -178 -66 -182 -76 -2 -7 12 -52 32 -100
21 -49 37 -99 37 -112 1 -34 -27 -58 -91 -81 -100 -35 -131 -47 -136 -53 -3
-3 12 -47 33 -99 33 -81 47 -102 103 -155 150 -144 283 -240 340 -247 l34 -4
-33 -1 -34 -2 7 -157 c4 -87 13 -221 21 -298 8 -77 18 -175 21 -217 l6 -78
-69 -30 c-242 -109 -527 -175 -804 -186 -74 -3 -145 -7 -157 -10 -24 -5 -25
-3 14 -92 8 -18 23 -57 33 -86 21 -62 12 -95 -31 -106 -14 -4 -41 -15 -61 -24
-24 -12 -54 -16 -94 -14 l-59 3 95 38 c52 21 101 41 107 45 9 6 5 27 -18 82
-17 41 -40 97 -50 123 l-18 48 45 20 c36 15 69 19 162 19 170 0 366 31 557 87
88 25 283 99 297 112 3 3 0 52 -7 109 -8 57 -19 183 -25 280 -21 336 -18 316
-50 335 -43 26 -187 144 -267 220 -68 64 -73 74 -117 185 -25 64 -46 120 -46
123 0 4 35 19 78 35 42 15 82 31 87 34 6 4 27 13 48 20 30 9 37 16 32 29 -4 9
-16 39 -26 66 -10 28 -29 78 -42 111 l-25 62 124 47 c68 27 124 52 124 57 0 6
-21 62 -46 125 -35 91 -43 118 -32 124 28 18 220 90 229 87 9 -3 72 -154 145
-348 14 -36 33 -85 44 -110 10 -25 41 -103 68 -175 115 -301 135 -350 142
-358 4 -5 27 -2 51 6 93 32 184 69 193 77 5 5 -12 61 -39 132 -26 68 -72 185
-101 260 -30 76 -54 140 -54 144 0 3 -7 20 -15 37 -7 18 -33 82 -56 142 -23
61 -55 144 -71 185 -16 41 -32 83 -35 93 -7 23 -28 21 -90 -8 -29 -13 -53 -22
-53 -20 0 2 -25 -7 -56 -21 -30 -13 -59 -22 -64 -19 -4 3 -25 52 -45 110 -21
57 -43 112 -49 120 -11 15 -54 2 -241 -74 -16 -6 -22 -2 -31 23 -43 112 -85
220 -87 222 -1 1 -20 -6 -42 -16 -22 -11 -45 -19 -50 -20 -13 0 -143 -54 -151
-63 -4 -4 7 -41 24 -84 17 -43 34 -90 38 -106 3 -15 10 -30 15 -33 13 -7 11
-34 -2 -34 -5 0 -35 -11 -65 -25 -30 -14 -59 -25 -63 -25 -9 0 -102 -38 -108
-44 -1 -1 11 -38 28 -82 54 -140 60 -157 56 -169 -3 -6 -24 -17 -48 -25 -24
-8 -67 -24 -96 -37 -28 -13 -59 -23 -68 -23 -25 0 -29 -26 -10 -73 16 -40 12
-38 -95 68 -61 61 -120 126 -130 147 -11 20 -40 96 -65 169 -45 130 -46 148
-11 149 8 0 161 59 471 182 112 45 114 47 102 93 -9 31 -80 205 -84 205 -3 0
-62 -22 -132 -50 -69 -27 -200 -78 -291 -114 -105 -41 -166 -60 -168 -53 -1 7
-13 68 -26 135 l-24 124 47 20 c25 11 57 24 71 28 14 5 59 22 100 38 41 16
125 48 185 71 61 23 124 48 140 56 17 7 48 20 70 28 22 9 71 27 108 41 37 14
72 26 76 26 5 0 21 -35 36 -77 15 -43 36 -99 47 -125 l20 -46 66 26 c37 14
110 40 162 58 52 19 104 38 115 43 11 6 50 22 87 35 79 29 66 40 123 -102 20
-51 34 -100 31 -107 -3 -9 0 -12 10 -8 8 3 14 -1 14 -8 0 -8 12 -41 26 -74 14
-33 26 -64 28 -70 4 -21 39 -105 42 -105 3 0 12 4 22 10 9 5 63 26 119 47 57
21 103 43 103 49 0 6 -16 54 -36 105 -19 52 -40 108 -46 124 -5 17 -18 48 -28
70 -9 22 -21 51 -25 65 -4 14 -13 39 -21 55 -21 49 -65 157 -84 210 -10 28
-25 66 -34 87 l-15 36 -78 -30 c-43 -16 -97 -38 -120 -49 -24 -10 -46 -19 -51
-19 -5 0 -53 -17 -108 -39 -311 -122 -397 -152 -404 -145 -4 5 -25 56 -46 114
-21 58 -42 110 -46 117 -7 9 -21 7 -56 -8 -26 -12 -63 -26 -82 -33 -19 -8 -69
-26 -110 -41 -41 -15 -79 -31 -84 -36 -6 -5 -19 -9 -31 -9 -12 0 -25 -4 -31
-9 -5 -5 -40 -20 -79 -34 -38 -15 -115 -44 -170 -65 -55 -22 -101 -37 -102
-33 -1 3 -4 22 -7 43 -6 32 -14 41 -79 79 -368 218 -812 574 -1032 828 -44 51
-72 76 -76 68 -3 -6 -23 -68 -44 -137 -42 -142 -184 -551 -194 -562 -4 -4 -3
20 0 55 4 34 11 166 15 292 24 766 -149 1355 -539 1840 -44 55 -82 102 -83
104 -2 2 -52 -25 -111 -59 -382 -223 -708 -513 -975 -867 -264 -352 -439 -748
-479 -1086 -6 -51 -13 -111 -15 -134 l-5 -43 -82 42 c-45 22 -207 101 -360
174 -225 107 -279 130 -284 117 -11 -28 7 -366 27 -508 25 -172 68 -347 127
-519 51 -151 187 -435 262 -549 28 -43 51 -79 51 -81 0 -13 -365 111 -564 190
-87 35 -163 64 -168 64 -11 0 71 -162 139 -274 205 -334 535 -672 841 -860 34
-21 62 -42 62 -45 0 -3 -37 -29 -83 -58 -259 -163 -530 -440 -711 -728 -61
-95 -162 -292 -155 -299 2 -2 47 14 99 36 556 233 1107 378 1436 378 l85 0
-68 -82 c-145 -176 -235 -312 -331 -504 -79 -158 -175 -414 -156 -414 3 0 51
25 106 56 435 244 938 368 1423 351 282 -10 478 -60 746 -188 l126 -61 159 45
c184 53 283 77 483 118 183 37 186 37 205 -3 37 -81 84 -203 80 -209 -2 -4
-58 -28 -124 -54 -109 -43 -119 -49 -109 -66 9 -17 6 -19 -21 -19 -30 0 -31 2
-28 37 l3 37 111 46 111 45 -35 84 -35 83 -46 -7 c-121 -17 -489 -106 -673
-161 l-87 -27 -133 66 c-284 139 -500 189 -813 189 -443 0 -836 -98 -1260
-315 -138 -71 -166 -82 -202 -79 -37 3 -43 6 -43 26 0 71 158 446 257 610 44
72 150 222 205 287 21 26 38 50 38 53 0 17 -187 -1 -360 -35 -260 -50 -616
-161 -910 -282 -47 -19 -119 -49 -160 -66 -82 -34 -100 -37 -118 -19 -23 23
-12 64 48 186 152 307 407 612 700 834 47 35 100 73 118 83 18 11 32 22 32 26
0 3 -19 19 -42 34 -365 240 -708 626 -913 1026 -57 111 -66 148 -40 169 19 16
34 12 197 -54 75 -30 148 -58 161 -61 23 -6 24 -4 21 27 -2 18 1 40 6 48 9 13
12 13 24 -2 7 -10 18 -18 25 -18 6 0 11 -9 11 -19 0 -11 6 -21 13 -24 9 -3 9
-9 0 -25 -11 -19 -7 -22 72 -51 47 -17 97 -34 112 -37 l27 -7 -21 29 c-36 50
-154 295 -198 409 -48 125 -85 243 -114 364 -11 46 -23 86 -26 89 -2 3 -17 0
-32 -7 -27 -12 -27 -13 -8 -26 38 -26 55 -49 55 -71 0 -13 -4 -25 -10 -29 -5
-3 -6 -15 -1 -28 5 -13 7 -35 4 -49 -3 -14 1 -38 9 -54 17 -36 17 -57 -2 -79
-8 -9 -15 -24 -16 -32 -6 -39 -14 -45 -53 -41 -22 2 -38 2 -36 0 2 -2 0 -15
-5 -28 -10 -25 -2 -32 17 -13 13 13 123 25 123 13 0 -6 -13 -17 -29 -27 -33
-19 -151 -35 -151 -20 0 11 -99 1 -191 -21 -226 -53 -455 -161 -651 -308 -65
-49 -99 -68 -121 -69 -18 0 -26 -3 -19 -6 7 -3 18 -17 23 -31 8 -20 6 -29 -12
-48 -27 -29 -19 -50 21 -59 30 -7 31 -9 25 -41 -3 -21 -2 -34 5 -34 5 0 10 7
10 15 0 11 11 15 39 15 37 0 55 11 56 34 0 6 15 14 33 18 20 5 37 18 44 33 14
31 22 31 47 4 22 -23 51 -20 51 6 0 16 46 65 61 65 5 0 11 10 14 23 5 18 13
22 48 22 38 0 42 -3 48 -30 l6 -30 7 26 c8 29 43 42 87 33 13 -2 18 -2 12 2
-19 8 -16 42 5 52 9 5 38 13 65 16 36 6 47 4 47 -6 0 -20 -13 -35 -37 -42 -27
-9 -31 -29 -5 -24 11 2 20 0 20 -4 5 -24 0 -38 -13 -38 -8 0 -15 -4 -15 -10 0
-5 9 -10 20 -10 11 0 20 -7 20 -15 0 -8 -9 -15 -20 -15 -18 0 -24 -8 -17 -27
1 -5 23 -6 50 -5 53 4 61 -8 22 -34 -37 -24 -30 -34 25 -34 52 0 64 -12 31
-29 -10 -6 -22 -18 -25 -27 -6 -15 -1 -16 38 -11 52 7 64 -3 36 -28 -32 -29
-25 -45 20 -45 l39 0 -14 -32 c-9 -23 -21 -34 -39 -36 -14 -2 -26 0 -26 5 0 4
-20 7 -45 5 -77 -7 -51 -53 35 -64 25 -4 24 -4 -8 -21 -18 -10 -38 -15 -45
-11 -7 3 6 -10 28 -30 27 -23 50 -35 70 -35 43 -1 53 9 57 54 4 47 27 54 41
12 13 -41 1 -73 -33 -89 -36 -16 -37 -23 -7 -43 19 -12 30 -13 57 -4 31 11 32
13 15 26 -14 9 -16 16 -8 24 6 6 16 8 22 5 17 -11 13 -44 -9 -66 -11 -11 -20
-22 -20 -25 0 -5 83 -63 90 -62 3 1 17 -10 31 -23 14 -14 39 -36 55 -50 17
-14 52 -44 78 -67 l47 -42 -25 -40 c-14 -22 -26 -50 -26 -61 0 -16 -4 -20 -19
-15 -15 4 -36 -13 -91 -73 -171 -189 -373 -476 -520 -740 -55 -98 -70 -117
-92 -120 -17 -2 -64 19 -143 64 -167 96 -376 185 -630 270 -283 94 -363 116
-371 102 -4 -7 -13 -3 -23 9 -9 11 -35 25 -59 32 -52 15 -72 47 -55 91 8 22 8
30 -2 34 -16 6 -35 83 -35 144 l0 50 -53 6 c-30 4 -65 2 -81 -4 -18 -7 -33 -7
-46 0 -10 5 -37 10 -59 10 -34 0 -41 -3 -41 -20 0 -37 86 -54 124 -25 25 19
36 19 36 0 0 -8 -9 -15 -20 -15 -22 0 -46 -35 -30 -45 15 -9 2 -25 -22 -25
-14 0 -18 5 -15 15 4 10 -5 17 -31 25 -55 15 -62 13 -62 -20 0 -26 5 -31 40
-40 50 -14 52 -33 3 -28 l-37 3 3 -60 c3 -87 11 -124 29 -134 14 -8 15 -13 3
-34 -15 -28 -12 -70 20 -257 45 -269 123 -569 212 -814 l50 -140 -46 -140
c-26 -77 -45 -141 -43 -144 2 -2 27 67 56 152 l52 156 490 0 c447 0 490 -1
484 -16 -3 -9 -18 -62 -32 -118 -14 -55 -32 -123 -40 -151 l-14 -50 -290 2
c-180 2 -291 -1 -295 -7 -7 -12 -53 -164 -51 -167 1 -2 135 -3 298 -3 l296 -1
-24 -87 c-14 -48 -34 -129 -46 -179 l-22 -93 -308 0 c-169 0 -308 -1 -308 -3
0 -3 -31 -108 -99 -337 -34 -113 -64 -213 -67 -222 -5 -16 -25 -18 -232 -19
-130 -1 -212 -5 -192 -9 19 -4 50 -15 67 -24 28 -15 57 -17 187 -14 219 4 220
6 306 303 55 188 68 223 95 245 17 14 232 25 251 12 8 -5 191 -246 292 -382
11 -15 11 -28 -2 -75 -13 -52 -13 -57 2 -62 9 -4 30 -17 45 -30 21 -17 41 -23
75 -23 l46 0 170 -168 c383 -378 789 -666 1261 -896 1031 -502 2203 -617 3320
-326 351 91 692 225 1042 409 92 49 103 57 107 85 3 17 14 103 26 191 31 235
31 239 42 250 11 11 8 -51 -12 -220 -10 -89 -9 -101 5 -111 15 -11 15 -13 -2
-22 -10 -6 -15 -14 -11 -17 4 -4 -2 -25 -13 -47 l-20 -39 22 12 c114 61 343
213 522 346 68 51 105 72 120 70 12 -2 17 -2 10 0 -7 2 -15 21 -19 41 -3 20
-12 67 -19 104 -11 63 -11 68 5 68 10 0 20 -9 23 -20 3 -11 14 -20 25 -20 11
0 22 -9 25 -20 4 -15 0 -20 -14 -20 -13 0 -19 -7 -18 -22 2 -30 16 -87 18 -69
2 22 82 86 105 84 19 -3 19 -2 -1 7 -13 5 -23 16 -23 25 0 10 -10 15 -34 15
-22 0 -36 6 -40 16 -9 24 -9 24 30 24 27 0 37 -5 41 -20 3 -11 14 -20 24 -20
11 0 19 -7 20 -17 0 -14 2 -15 6 -3 3 8 90 101 192 205 303 308 528 596 721
923 23 40 46 75 51 77 11 7 82 -233 73 -247 -3 -5 0 -7 7 -6 6 2 16 -13 21
-32 40 -154 113 -416 130 -463 15 -41 31 -66 56 -85 34 -26 40 -27 193 -30
134 -3 163 -1 191 13 18 10 47 21 63 25 17 5 -67 8 -197 9 l-227 1 -20 68
c-58 196 -170 611 -173 637 -2 17 -5 32 -8 35 -7 7 -34 89 -55 170 -10 36 -27
96 -39 135 l-23 70 -142 1 c-78 1 -144 4 -146 6 -3 3 -12 33 -70 246 l-22 82
450 0 c247 0 452 2 455 5 3 3 -44 5 -105 5 l-111 0 59 170 c110 320 191 676
224 985 3 33 8 72 11 88 6 27 5 27 -46 27 -58 0 -90 13 -90 36 0 14 10 15 69
9 67 -7 68 -6 73 18 3 14 1 32 -4 41 -6 10 -5 16 2 16 7 0 10 29 8 88 l-3 87
-40 0 -39 0 -17 -60 c-9 -33 -21 -71 -27 -85 -11 -25 -11 -25 -11 6 -1 17 -8
37 -17 45 -14 12 -14 14 4 20 14 5 22 21 27 51 13 82 10 80 76 75 l59 -4 0
111 c0 149 -16 411 -36 576 -14 123 -60 399 -67 406 -2 2 -9 -12 -16 -31 -20
-57 -35 -43 -27 26 4 33 11 71 16 84 6 17 -1 60 -26 157 -104 393 -298 878
-377 942 -20 16 -39 40 -42 55 -5 24 -9 26 -60 26 -64 0 -83 13 -63 44 10 17
10 25 0 42 -12 18 -10 23 12 44 14 13 26 32 26 43 0 21 -73 147 -86 147 -4 0
-12 -15 -16 -32 -8 -30 -28 -47 -28 -23 0 6 -19 10 -42 10 -24 0 -38 4 -32 8
18 11 34 49 34 77 0 17 -8 29 -25 37 -35 16 -31 28 11 28 l35 0 -18 31 c-60
102 -451 589 -473 589 -4 0 -12 -11 -18 -25 -6 -14 -18 -25 -27 -25 -21 0 -19
-16 6 -33 11 -8 16 -18 11 -21 -13 -8 -652 -10 -660 -2 -16 16 27 19 241 18
127 0 251 1 275 4 37 5 42 8 42 30 0 26 30 44 74 44 13 0 28 6 34 13 9 10 -13
37 -92 116 l-104 104 -216 -5 c-119 -2 -216 -1 -216 3 0 12 154 26 304 28 77
1 96 4 89 14 -6 6 -12 24 -15 39 -4 21 0 29 20 38 22 9 24 9 14 -3 -10 -11 -9
-17 3 -27 8 -6 20 -10 27 -7 8 4 7 6 -4 6 -10 1 -18 5 -18 10 0 20 35 3 40
-20 l6 -24 6 23 c3 12 11 22 18 22 6 0 8 -5 4 -12 -5 -7 -3 -8 6 -3 7 4 16 2
21 -6 7 -11 9 -11 9 -1 0 7 5 10 10 7 6 -4 8 -10 5 -15 -3 -5 -1 -11 4 -15 6
-3 8 3 6 15 -2 11 0 20 6 20 8 0 13 -13 11 -31 -1 -3 6 -6 13 -6 11 0 12 3 3
14 -6 8 -7 13 -2 12 27 -5 36 1 24 15 -6 8 -19 12 -27 9 -12 -5 -15 -2 -10 10
4 12 -20 40 -91 103 -710 634 -1581 1051 -2512 1204 -274 44 -384 52 -765 55
-203 1 -388 1 -410 -1z m1650 -358 l40 -14 -2 -72 c-2 -80 -8 -94 -29 -66 -7
11 -17 16 -21 12 -4 -4 3 -15 16 -25 31 -24 15 -34 -53 -32 -28 0 -95 2 -148
3 -54 2 -98 6 -98 9 0 16 31 27 93 32 42 3 75 11 86 21 10 9 27 16 39 16 15 0
22 6 22 19 0 24 -17 37 -57 46 -36 7 -37 8 -24 33 5 9 12 24 15 34 5 18 39 13
121 -16z m-356 -23 c0 -16 -3 -22 -6 -15 -7 18 -40 15 -48 -5 -5 -10 -7 -26
-6 -37 2 -11 -2 -16 -8 -12 -6 4 -11 20 -11 36 0 21 7 33 28 43 41 22 52 20
51 -10z m1 -48 c0 -8 -4 -15 -10 -15 -5 0 -7 7 -4 15 4 8 8 15 10 15 2 0 4 -7
4 -15z m709 -45 c104 -41 112 -46 109 -70 -2 -18 -9 -25 -25 -25 -13 0 -23 -4
-22 -10 0 -5 9 -9 19 -8 23 3 38 -36 19 -48 -8 -5 -22 -6 -31 -3 -10 3 -23 2
-30 -3 -7 -4 -30 -8 -50 -8 -29 0 -38 4 -38 16 0 10 11 20 26 23 17 5 24 12
20 21 -3 9 0 15 8 15 7 0 12 10 11 23 -1 16 -9 23 -28 25 -27 3 -32 -5 -29
-49 1 -14 -11 -16 -91 -12 -51 2 -104 8 -118 14 -14 5 -32 9 -39 7 -7 -2 -15
3 -17 10 -4 11 13 12 91 6 85 -6 99 -5 116 11 15 14 20 15 20 4 1 -9 7 -6 19
8 20 24 18 58 -2 66 -25 9 -77 -5 -78 -22 -1 -9 -4 -5 -9 9 -5 18 -3 29 9 38
8 7 18 11 21 10 4 -2 57 -23 119 -48z m-219 20 c0 -6 -11 -8 -26 -4 -25 6 -26
5 -22 -20 3 -14 2 -26 -3 -26 -11 0 -22 38 -14 50 8 13 65 13 65 0z m-506 -89
c3 -5 -1 -14 -9 -21 -8 -7 -15 -10 -15 -7 0 3 -3 12 -6 21 -7 17 20 23 30 7z
m1076 -71 c13 -8 13 -10 -2 -10 -9 0 -20 5 -23 10 -8 13 5 13 25 0z m54 -50
c4 -4 -1 -13 -13 -19 -12 -7 -21 -9 -21 -5 0 3 -6 1 -14 -5 -9 -8 -63 -13
-148 -14 l-133 -3 -5 -29 c-4 -26 -9 -29 -45 -32 -22 -1 -41 -7 -43 -12 -2 -5
-35 -13 -73 -17 -55 -5 -67 -9 -59 -19 8 -10 8 -15 0 -20 -16 -10 -38 14 -42
45 -2 21 2 26 25 28 16 2 27 9 27 19 0 19 39 52 62 53 9 0 20 4 23 10 3 5 19
7 34 4 16 -4 32 -1 35 5 9 14 63 15 71 1 3 -5 26 -10 51 -10 32 0 44 4 44 15
0 18 41 20 58 3 8 -8 15 -8 24 -1 27 22 120 24 142 3z m-844 -40 c0 -5 -4 -10
-10 -10 -5 0 -10 5 -10 10 0 6 5 10 10 10 6 0 10 -4 10 -10z m829 -31 c17 -12
17 -13 -1 -31 -11 -11 -21 -18 -22 -16 -36 41 -20 73 23 47z m66 -19 c3 -5 1
-10 -4 -10 -6 0 -11 5 -11 10 0 6 2 10 4 10 3 0 8 -4 11 -10z m-711 -51 c39
-18 21 -28 -42 -23 -80 7 -104 13 -97 24 9 14 109 12 139 -1z m622 -36 c-11
-11 -17 4 -9 23 7 18 8 18 11 1 2 -10 1 -21 -2 -24z m68 -49 c26 -10 20 -37
-6 -30 -13 3 -38 6 -55 6 -45 0 -41 18 5 23 20 2 38 4 39 5 1 1 8 -1 17 -4z
m-204 -23 c0 -14 -18 -23 -30 -16 -6 4 -8 11 -5 16 8 12 35 12 35 0z m185 -51
c3 -5 -1 -10 -9 -10 -8 0 -18 5 -21 10 -3 6 1 10 9 10 8 0 18 -4 21 -10z m515
-11 c0 -5 -72 -9 -160 -9 -88 0 -163 0 -167 -1 -4 0 -9 4 -11 10 -2 7 43 11
130 13 152 3 208 0 208 -13z m65 -7 c-3 -3 -11 0 -18 7 -9 10 -8 11 6 5 10 -3
15 -9 12 -12z m-475 -2 c0 -23 -80 -26 -88 -2 -2 8 10 12 42 12 25 0 46 -4 46
-10z m-1096 -6 c12 -5 13 -10 4 -30 -11 -24 -11 -24 -25 -3 -11 14 -18 17 -27
10 -8 -7 -27 -6 -56 2 l-45 12 60 6 c33 3 63 6 67 7 3 1 13 -1 22 -4z m971
-44 c4 -6 29 -10 56 -9 52 2 69 -5 53 -21 -7 -7 -35 -7 -84 0 -81 11 -92 16
-70 30 20 13 37 12 45 0z m-2380 -213 c142 -218 266 -488 344 -746 22 -74 40
-136 38 -137 -1 -1 -46 20 -100 47 -56 28 -181 75 -290 110 -106 33 -202 64
-215 70 -13 5 -29 9 -37 9 -18 0 -54 -98 -61 -169 -12 -107 32 -297 99 -434
l34 -68 -26 6 c-55 14 -189 84 -254 133 -37 29 -70 52 -72 52 -10 0 -64 -119
-84 -185 -34 -108 -59 -275 -71 -466 -6 -95 -12 -175 -14 -176 -6 -6 -64 153
-81 221 -24 99 -36 284 -25 393 45 434 286 919 668 1341 41 45 79 82 83 82 5
0 34 -37 64 -83z m3105 42 c0 -18 -4 -21 -29 -16 -27 6 -28 5 -17 -18 6 -14
17 -25 24 -25 6 0 12 -4 12 -9 0 -10 -84 -27 -115 -23 -41 5 -64 -6 -58 -30 7
-26 1 -23 -16 9 -10 19 -8 24 11 34 13 7 39 15 58 18 30 6 36 11 44 44 9 35
12 37 48 37 32 0 38 -3 38 -21z m-649 -15 c16 -8 29 -16 29 -17 0 -2 -291 0
-327 2 -19 1 -16 19 5 23 9 2 73 5 141 6 92 1 131 -3 152 -14z m859 -44 c0 -5
-23 -10 -51 -10 -31 0 -48 4 -44 10 3 6 26 10 51 10 24 0 44 -4 44 -10z m164
-38 c3 -5 -1 -9 -9 -9 -8 0 -12 4 -9 9 3 4 7 8 9 8 2 0 6 -4 9 -8z m-6304 -33
c0 -5 -4 -9 -8 -9 -5 0 -9 7 -9 15 0 8 4 12 9 9 4 -3 8 -9 8 -15z m6347 -21
c-3 -8 -6 -5 -6 6 -1 11 2 17 5 13 3 -3 4 -12 1 -19z m-6507 8 c0 -3 -4 -8
-10 -11 -5 -3 -10 -1 -10 4 0 6 5 11 10 11 6 0 10 -2 10 -4z m6526 -32 c-4 -9
-9 -15 -11 -12 -3 3 -3 13 1 22 4 9 9 15 11 12 3 -3 3 -13 -1 -22z m154 16 c0
-5 -7 -7 -15 -4 -8 4 -15 8 -15 10 0 2 7 4 15 4 8 0 15 -4 15 -10z m-6798 -32
c-7 -7 -12 -8 -12 -2 0 14 12 26 19 19 2 -3 -1 -11 -7 -17z m5653 -48 c0 -11
-14 -16 -54 -18 -30 -2 -58 1 -64 7 -19 19 5 30 61 28 43 -1 57 -6 57 -17z
m95 -115 c0 -14 -4 -25 -10 -25 -5 0 -10 11 -10 25 0 14 5 25 10 25 6 0 10
-11 10 -25z m509 -131 c1 -1 0 -8 -4 -15 -5 -8 -29 -10 -76 -7 -38 3 -87 2
-109 -2 -41 -7 -46 -5 -32 17 10 17 202 23 221 7z m491 -229 c0 -11 11 -15 38
-15 37 0 102 -31 102 -49 0 -12 -28 -41 -40 -41 -4 0 -11 -20 -14 -45 -8 -50
-14 -56 -44 -48 -18 4 -22 13 -22 49 l0 44 -42 0 c-72 0 -72 0 -42 108 5 18
64 16 64 -3z m-924 -207 c-4 -43 -25 -49 -21 -6 3 40 3 38 15 38 5 0 8 -14 6
-32z m1074 -16 c0 -13 -12 -22 -22 -16 -10 6 -1 24 13 24 5 0 9 -4 9 -8z
m-502 -88 c17 -5 6 -119 -14 -151 -9 -15 -10 -24 -3 -28 11 -8 3 -63 -13 -82
-5 -7 -7 -17 -3 -23 4 -6 4 -23 0 -37 -6 -25 -8 -26 -65 -20 -40 5 -66 13 -80
27 -11 11 -27 20 -35 20 -18 0 -20 20 -2 21 6 0 31 0 55 -1 42 -2 43 -1 40 27
-3 30 -9 31 -65 19 -32 -7 -33 -6 -33 23 0 17 3 31 8 31 4 0 6 19 4 43 -1 23
1 62 5 87 8 39 12 46 38 50 31 6 140 2 163 -6z m749 -296 c-3 -8 -6 -5 -6 6
-1 11 2 17 5 13 3 -3 4 -12 1 -19z m348 -25 c32 -36 32 -43 -4 -43 -30 0 -61
30 -61 57 0 23 38 14 65 -14z m-28 -89 c-3 -3 -12 -4 -19 -1 -8 3 -5 6 6 6 11
1 17 -2 13 -5z m-12 -94 c11 -34 35 -50 76 -50 35 0 39 -3 39 -25 0 -24 -3
-25 -61 -25 -72 0 -99 12 -99 45 0 13 -5 27 -11 31 -8 4 -4 13 12 25 31 24 36
23 44 -1z m-5385 -799 c78 -57 114 -178 70 -233 -12 -16 -27 -28 -35 -28 -22
0 -58 71 -56 111 2 41 -22 70 -41 51 -8 -8 -5 -31 11 -87 27 -89 22 -124 -21
-160 -51 -43 -127 -29 -181 34 -44 53 -70 118 -64 163 5 37 39 88 59 88 4 0
19 -18 34 -39 20 -31 24 -46 19 -73 -8 -40 21 -85 48 -75 14 5 14 12 -4 74
-23 81 -24 105 -5 142 30 58 110 74 166 32z m-1172 -97 c-5 -27 -138 -60 -138
-35 0 8 35 24 100 45 29 9 41 6 38 -10z m-38 -88 c0 -3 -4 -8 -10 -11 -5 -3
-10 -1 -10 4 0 6 5 11 10 11 6 0 10 -2 10 -4z m-35 -16 c-3 -5 -10 -10 -16
-10 -5 0 -9 5 -9 10 0 6 7 10 16 10 8 0 12 -4 9 -10z m129 -16 c9 -3 16 -12
16 -20 0 -15 -18 -18 -44 -8 -12 5 -13 9 -3 20 14 16 12 15 31 8z m-64 -38 c0
-3 -4 -8 -10 -11 -5 -3 -10 -1 -10 4 0 6 5 11 10 11 6 0 10 -2 10 -4z m3145
-275 l300 -163 157 -186 c87 -103 154 -188 149 -190 -14 -5 -636 169 -648 181
-9 10 -148 222 -340 521 l-45 69 64 -35 c35 -19 198 -108 363 -197z m-1672
114 c94 -120 105 -170 52 -233 -59 -70 -132 -67 -206 9 l-49 50 -46 -37 -46
-38 -34 37 c-19 20 -34 43 -34 51 0 17 268 235 290 235 8 0 41 -33 73 -74z
m-2028 -5 c3 -5 -1 -10 -10 -10 -9 0 -13 5 -10 10 3 6 8 10 10 10 2 0 7 -4 10
-10z m2302 -312 c18 -18 33 -37 33 -42 0 -13 -251 -266 -264 -266 -15 0 -76
62 -76 77 0 15 249 262 265 263 5 0 24 -14 42 -32z m3569 -46 c9 -20 17 -44
19 -52 2 -8 16 -44 30 -79 22 -51 24 -65 14 -72 -38 -23 -222 -90 -229 -82 -4
4 -28 58 -53 120 l-44 112 46 19 c25 11 69 27 96 37 28 10 53 21 57 25 23 18
49 7 64 -28z m1854 -87 c10 -12 10 -15 -3 -15 -16 0 -39 -31 -36 -47 5 -32 -2
-43 -25 -37 -18 4 -25 1 -29 -15 -7 -29 -27 -26 -27 3 0 18 6 26 22 28 17 2
26 15 38 50 16 50 37 61 60 33z m-5219 -67 c21 -17 39 -35 39 -39 0 -5 -15
-25 -32 -45 -32 -37 -33 -37 -8 -31 93 23 108 21 156 -18 58 -48 50 -57 -72
-80 -106 -20 -104 -16 -104 -155 0 -100 -11 -112 -68 -68 l-42 32 0 73 c0 40
-2 73 -5 73 -3 0 -20 -17 -38 -37 l-34 -36 -32 22 c-62 44 -61 45 71 200 66
77 122 141 125 141 2 0 22 -14 44 -32z m-1979 -198 c-9 -10 -18 -13 -20 -9 -2
5 -12 9 -23 9 -18 0 -26 20 -13 32 3 3 21 1 40 -5 32 -10 33 -11 16 -27z
m5997 -26 c7 -7 -12 -21 -36 -29 -18 -5 -23 -2 -23 13 0 10 3 22 7 25 6 7 42
0 52 -9z m-5969 -24 c0 -5 -2 -10 -4 -10 -3 0 -8 5 -11 10 -3 6 -1 10 4 10 6
0 11 -4 11 -10z m2385 -87 c63 -42 115 -82 115 -90 0 -20 -30 -63 -44 -63 -6
0 -42 21 -79 46 -65 43 -69 44 -82 27 -17 -23 -17 -23 55 -69 63 -41 70 -55
44 -92 -21 -31 -36 -28 -103 18 -58 39 -59 39 -76 20 -10 -11 -16 -22 -14 -24
2 -1 33 -22 69 -46 36 -24 68 -48 72 -54 8 -12 -20 -63 -39 -70 -16 -7 -243
140 -243 157 0 11 199 317 207 317 2 0 55 -34 118 -77z m3525 26 c0 -11 -4
-18 -10 -14 -5 3 -7 12 -3 20 7 21 13 19 13 -6z m50 -90 c63 -14 65 -29 2 -29
-26 0 -53 -5 -60 -12 -9 -9 -12 -5 -12 20 0 36 0 36 70 21z m-5760 -79 c0 -5
-7 -10 -15 -10 -8 0 -15 5 -15 10 0 6 7 10 15 10 8 0 15 -4 15 -10z m7132 -12
c-7 -7 -12 -8 -12 -2 0 14 12 26 19 19 2 -3 -1 -11 -7 -17z m-4637 -30 c25
-12 45 -28 45 -35 0 -8 -12 -36 -26 -64 -14 -28 -24 -52 -22 -54 2 -1 22 -12
45 -24 l43 -21 30 60 c17 33 32 60 35 60 17 0 95 -47 95 -57 0 -22 -159 -333
-170 -333 -23 0 -90 41 -90 56 0 8 12 38 26 66 29 57 29 55 -39 85 -27 12 -28
11 -57 -47 -17 -33 -35 -60 -41 -60 -22 0 -89 41 -89 55 0 16 157 335 165 335
2 0 25 -10 50 -22z m4380 -12 c60 -10 70 -15 73 -34 3 -19 -1 -22 -31 -22 -18
0 -59 5 -91 11 -45 10 -62 9 -81 -1 -31 -17 -39 -10 -30 29 6 29 10 31 48 30
23 0 74 -6 112 -13z m5 -100 c0 -7 -8 -20 -17 -27 -15 -12 -16 -12 -10 4 4 10
7 23 7 28 0 5 5 9 10 9 6 0 10 -6 10 -14z m63 -62 c-2 -7 -11 -10 -19 -7 -17
6 -18 15 -2 31 14 14 29 -3 21 -24z m-3966 -40 c24 -9 43 -23 43 -30 0 -24
-120 -338 -132 -345 -13 -8 -76 15 -94 34 -12 12 -2 41 92 290 14 37 31 67 37
67 6 0 31 -7 54 -16z m302 -100 c155 -47 190 -97 157 -228 -33 -131 -79 -173
-177 -164 -77 7 -199 46 -199 63 0 8 15 72 34 142 19 70 40 147 46 171 13 51
21 52 139 16z m2291 -4 c0 -12 -17 -12 -45 0 -17 7 -15 9 13 9 17 1 32 -3 32
-9z m-5780 -74 c-14 -14 -32 3 -17 18 9 10 14 11 19 2 4 -6 3 -15 -2 -20z
m3985 -27 c86 -12 107 -20 143 -52 34 -32 44 -84 31 -169 -23 -153 -79 -186
-274 -158 -38 6 -73 14 -78 19 -10 10 32 351 45 368 6 7 20 11 32 8 11 -2 57
-9 101 -16z m1120 -11 c3 -13 14 -95 24 -183 21 -177 20 -179 -40 -190 -34 -6
-38 -4 -89 57 -89 105 -83 104 -75 14 8 -89 4 -96 -58 -96 -48 0 -49 3 -72
209 -20 182 -20 181 47 181 35 0 43 -6 99 -75 34 -41 64 -74 66 -72 2 2 -1 37
-7 77 -6 41 -7 77 -3 81 5 4 24 9 43 12 19 2 41 5 47 5 7 1 15 -8 18 -20z
m-5107 0 c16 -16 15 -28 -3 -28 -8 0 -15 2 -15 4 0 2 -3 11 -6 20 -7 19 7 21
24 4z m4620 -27 c8 -5 12 -23 10 -47 l-3 -39 -87 -3 c-86 -3 -88 -3 -88 -27 0
-24 2 -25 74 -25 82 0 100 -11 94 -57 -3 -28 -3 -28 -85 -31 l-83 -3 0 -28 0
-28 82 -2 c45 -1 85 -4 90 -7 14 -9 9 -71 -7 -84 -12 -10 -46 -11 -142 -6 -70
4 -130 9 -135 12 -10 6 -11 368 -1 377 9 10 266 8 281 -2z m-4637 -51 c-30
-26 -51 -25 -51 0 0 17 7 20 38 20 l37 -1 -24 -19z m49 -77 c0 -13 -44 -71
-63 -83 -16 -9 -21 -9 -28 2 -13 19 -5 33 19 32 12 0 19 3 16 8 -3 5 5 17 18
28 24 20 38 25 38 13z m4670 -393 c14 -4 47 -18 74 -30 56 -25 55 -27 -49 -66
-38 -15 -74 -31 -79 -35 -14 -12 -46 -11 -46 1 0 6 -9 29 -19 53 -10 23 -30
68 -44 99 l-25 57 81 -36 c45 -19 93 -38 107 -43z m-4012 -93 c18 -14 15 -43
-14 -127 -40 -119 -91 -327 -105 -427 -11 -88 -13 -93 -36 -93 -23 0 -23 2
-17 53 12 103 54 297 90 413 20 66 39 127 41 137 5 15 -8 12 -93 -17 -284 -99
-595 -293 -851 -530 -49 -45 -67 -56 -94 -56 l-34 1 75 70 c280 263 588 457
884 559 105 36 126 39 154 17z m43 -217 c-8 -48 -16 6 -12 82 l5 73 6 -65 c3
-36 4 -76 1 -90z m3732 -212 c4 -9 77 -192 77 -193 0 0 -58 1 -130 3 -84 2
-130 -1 -130 -7 0 -7 52 -12 138 -14 l137 -3 -140 -2 -141 -2 -28 65 c-16 36
-26 68 -23 72 6 6 218 92 228 93 4 0 9 -6 12 -12z m-1933 -41 c40 -20 37 -58
-7 -121 -30 -44 -44 -55 -65 -56 -16 0 -28 3 -28 7 0 3 17 29 38 57 21 28 42
57 47 65 7 12 -17 13 -151 7 -289 -13 -521 -50 -712 -112 -50 -17 -92 -24
-126 -22 l-51 3 77 33 c144 61 369 109 613 132 230 21 334 23 365 7z m-2205
-198 c-4 -6 2 -5 13 2 12 7 23 11 25 9 5 -5 -7 -80 -82 -520 -28 -162 -74
-438 -103 -612 l-52 -318 -633 0 c-502 0 -631 3 -628 13 2 6 63 246 134 532
71 286 146 583 166 660 21 77 41 158 46 180 5 22 12 46 14 53 3 9 124 12 555
12 390 0 549 -3 545 -11z m317 -21 l1 -33 4 33 4 33 125 -2 c99 -1 124 -4 120
-14 -2 -7 -8 -45 -12 -84 l-7 -71 63 0 62 0 -7 -47 c-4 -27 -11 -49 -16 -51
-5 -2 -2 -10 6 -19 9 -8 22 -13 29 -10 7 3 19 0 25 -6 8 -8 11 -8 11 2 0 10
11 12 43 8 23 -3 48 -3 54 1 6 4 14 33 18 64 l7 57 62 3 61 3 9 83 9 82 205 0
205 0 -8 -72 c-4 -40 -8 -91 -11 -113 -6 -74 -13 -189 -14 -236 l0 -46 -75 -1
c-41 0 -82 -1 -90 -1 -12 -1 -15 -15 -15 -66 0 -70 -8 -78 -44 -47 -14 11 -17
12 -9 2 10 -14 6 -16 -28 -17 -37 -2 -39 -1 -33 23 4 16 2 24 -7 24 -7 0 -10
2 -7 5 10 11 39 -8 34 -22 -4 -11 -1 -11 14 -3 23 12 26 21 8 17 -7 -1 -12 4
-11 11 2 6 -2 12 -7 12 -6 0 -10 7 -10 16 0 14 -3 14 -15 4 -12 -10 -15 -10
-15 0 0 10 -3 10 -15 0 -9 -7 -15 -8 -15 -2 0 5 -9 8 -20 5 -16 -4 -20 0 -21
18 0 22 -1 23 -8 4 -5 -11 -7 -23 -4 -27 2 -5 -1 -8 -6 -8 -6 0 -11 8 -11 19
0 27 -26 46 -34 25 -12 -30 -7 -57 9 -50 10 3 15 -1 15 -14 0 -10 5 -22 12
-26 8 -5 9 -2 5 9 -3 10 -2 17 2 17 5 0 11 -7 15 -15 10 -26 25 -16 20 13 -3
19 -2 23 5 12 5 -8 8 -17 5 -21 -2 -4 3 -10 12 -13 10 -4 13 -13 9 -28 -5 -19
-4 -20 5 -8 9 11 10 -8 6 -82 -6 -110 -13 -101 78 -98 l49 2 -7 -71 -6 -71 85
0 c74 0 85 -2 85 -17 0 -10 -7 -129 -17 -265 l-17 -248 -224 0 -224 0 7 88 c4
48 8 92 8 97 1 6 -10 11 -25 13 -18 2 -28 10 -29 20 -1 15 -2 15 -6 0 -3 -13
-15 -18 -39 -18 -34 0 -35 1 -30 33 3 17 7 50 8 72 3 39 2 40 -30 43 -28 3
-31 6 -21 18 10 12 9 13 -5 8 -9 -3 -16 -10 -16 -15 0 -5 -22 -9 -49 -9 -53 0
-60 -9 -61 -75 -1 -69 -6 -75 -75 -75 -72 0 -70 2 -80 -95 -3 -33 -8 -70 -11
-82 l-4 -23 -226 0 -226 0 7 30 c4 17 12 67 20 113 7 45 23 151 36 234 l24
153 91 0 91 0 9 68 9 67 65 0 65 0 13 88 c8 49 11 91 8 94 -3 3 -33 5 -67 4
-51 -1 -60 1 -55 14 3 8 8 37 12 65 7 57 15 53 -93 51 -40 0 -73 2 -73 6 0 3
9 58 19 122 11 64 27 167 37 229 l18 112 73 0 73 0 2 -32z m2080 -3 c-3 -21 0
-35 7 -35 6 0 11 10 11 23 0 38 19 47 97 47 l73 0 0 -167 0 -168 -331 0 c-182
0 -333 -4 -336 -8 -6 -9 -7 -43 -18 -444 l-8 -273 264 -1 c145 -1 303 -1 352
0 l87 2 0 -180 c0 -98 3 -186 6 -195 6 -14 -50 -16 -586 -16 -558 0 -591 1
-586 18 3 9 10 98 16 197 6 99 12 203 15 230 2 28 7 120 11 205 3 85 8 157 9
160 2 3 6 57 10 120 3 63 10 187 16 275 5 88 9 179 9 203 l0 42 443 0 443 0
-4 -35z m1306 -102 c7 -76 22 -243 32 -372 11 -128 22 -242 25 -252 6 -17 0
-19 -59 -19 l-66 0 0 -34 c0 -61 6 -66 74 -66 l63 0 12 -132 c7 -73 16 -180
21 -238 5 -58 12 -126 16 -152 l6 -48 -225 0 -224 0 -6 93 c-3 50 -12 181 -18
290 l-12 197 -89 0 -88 0 0 -60 c0 -51 12 -287 23 -467 l4 -53 -224 0 -223 0
-1 68 c-1 37 -3 78 -4 92 -2 14 -6 198 -10 410 -4 212 -9 403 -10 425 -2 35
-6 388 -5 438 0 16 30 17 488 17 l488 0 12 -137z m1096 120 c2 -10 12 -65 21
-123 9 -58 26 -163 39 -235 13 -71 31 -175 40 -230 9 -55 21 -122 26 -150 6
-27 17 -90 25 -140 22 -130 24 -145 34 -195 5 -25 19 -103 30 -175 12 -71 24
-142 27 -157 l6 -28 -225 0 -224 0 -12 83 c-6 45 -13 93 -15 107 -3 14 -12 76
-21 138 l-17 112 -90 0 -90 0 7 -57 c4 -32 9 -66 11 -78 4 -19 17 -118 33
-247 l7 -58 -222 0 -223 0 -5 43 c-3 23 -13 110 -21 192 -9 83 -22 211 -30
285 -8 74 -19 194 -25 265 -6 72 -17 182 -25 245 -8 63 -19 169 -25 235 -6 66
-13 135 -16 153 l-5 32 490 0 c458 0 490 -1 495 -17z m1139 -130 c21 -82 40
-157 43 -168 5 -20 1 -20 -291 -17 -279 2 -296 1 -291 -15 3 -10 10 -47 17
-83 6 -36 15 -69 19 -73 4 -4 139 -8 301 -7 l294 0 45 -180 46 -180 -303 0
c-347 0 -315 12 -288 -105 9 -36 13 -70 10 -75 -3 -4 -1 -10 5 -12 5 -1 11
-27 12 -55 2 -29 6 -53 9 -53 4 0 9 -12 12 -27 3 -16 17 -79 30 -140 l25 -113
-224 0 -224 0 -4 23 c-3 12 -17 90 -31 172 -26 149 -53 301 -99 550 -14 72
-32 175 -42 230 -9 55 -32 178 -50 274 -19 96 -34 180 -34 187 0 12 83 14 488
14 l488 0 37 -147z m-2150 -238 c5 -54 4 -57 -8 -35 -7 14 -15 54 -19 90 -5
60 -5 63 8 35 7 -16 16 -57 19 -90z m-3530 -278 c15 -50 27 -95 27 -99 0 -5
-11 -8 -24 -8 -21 0 -26 7 -35 50 -6 28 -14 75 -17 105 -11 87 16 61 49 -48z
m1943 4 c97 -24 197 -46 328 -72 128 -26 156 -40 156 -79 0 -17 1 -33 3 -37 4
-11 -52 -22 -59 -12 -3 6 -14 7 -23 4 -10 -3 -31 2 -48 10 -16 8 -43 16 -59
16 -16 1 -38 5 -49 10 -41 17 -111 33 -132 31 -13 -2 -23 2 -23 8 0 5 -7 10
-16 10 -8 0 -49 11 -90 25 -41 14 -88 25 -105 25 -27 0 -30 3 -23 23 8 27 33
57 49 57 6 0 47 -9 91 -19z m-975 -78 c29 -43 83 -120 121 -171 52 -70 68
-100 68 -125 l-1 -32 -19 24 c-11 13 -20 29 -20 37 0 7 -9 32 -21 54 -14 27
-28 40 -43 41 -23 0 -37 16 -114 130 -61 90 -64 104 -25 118 1 1 26 -34 54
-76z m844 -133 c142 -27 577 -135 607 -151 26 -14 26 -114 -1 -128 -10 -6 -21
-7 -25 -4 -3 3 -6 1 -6 -5 0 -7 -7 -12 -15 -12 -10 0 -15 10 -15 34 0 19 -4
46 -10 60 l-10 26 -280 0 c-180 0 -280 4 -280 10 0 6 -9 10 -20 10 -12 0 -24
10 -30 24 -5 13 -13 27 -18 30 -10 6 -7 100 4 117 3 5 13 8 22 5 10 -2 44 -10
77 -16z m-2085 -181 c0 -10 -6 -19 -14 -19 -19 0 -28 14 -20 33 8 21 34 10 34
-14z m2695 -419 c3 -5 -1 -10 -9 -10 -8 0 -18 5 -21 10 -3 6 1 10 9 10 8 0 18
-4 21 -10z m-1285 -40 c-9 -16 -8 -22 5 -26 44 -17 -8 -78 -61 -72 -22 2 -31
-2 -39 -19 -5 -13 -16 -23 -23 -23 -7 0 -17 -11 -22 -25 -14 -38 -30 -31 -19
7 11 41 12 38 -6 38 -10 0 -15 -11 -15 -35 0 -19 -4 -35 -9 -35 -5 0 -8 30 -8
66 0 63 1 65 23 60 15 -4 26 -1 31 9 6 9 27 15 61 16 32 1 51 6 50 13 -3 12
22 45 35 46 4 0 3 -9 -3 -20z m840 -10 c0 -5 -5 -10 -11 -10 -5 0 -7 5 -4 10
3 6 8 10 11 10 2 0 4 -4 4 -10z m-777 -12 c-4 -7 -8 -26 -8 -42 0 -16 -5 -31
-12 -33 -7 -3 -12 5 -11 19 0 45 9 68 24 68 10 0 12 -4 7 -12z m3278 -115
c-16 -132 -36 -151 -26 -24 6 82 21 139 33 126 3 -2 -1 -48 -7 -102z m-2581
-53 c0 -5 -4 -10 -10 -10 -5 0 -10 5 -10 10 0 6 5 10 10 10 6 0 10 -4 10 -10z
m-2492 -17 c-3 -15 -17 -19 -78 -23 -61 -4 -75 -8 -78 -22 -3 -15 5 -18 52
-18 49 0 56 -2 56 -20 0 -12 7 -20 16 -20 13 0 15 -8 9 -42 -10 -65 -15 -78
-31 -78 -8 0 -19 -11 -24 -25 -9 -23 -15 -25 -65 -25 -54 0 -55 1 -49 25 5 21
3 25 -15 25 -23 0 -24 1 -15 24 9 23 34 20 34 -4 0 -18 7 -20 54 -20 30 0 57
3 59 8 3 4 8 31 12 60 l7 52 -55 0 c-50 0 -55 2 -50 20 4 16 0 20 -17 20 -16
0 -20 4 -16 16 3 9 6 20 6 24 0 5 9 7 20 5 14 -3 20 2 20 16 0 17 7 19 76 19
66 0 75 -2 72 -17z m295 -3 c-3 -11 -14 -20 -24 -20 -21 0 -22 1 -13 24 9 25
43 21 37 -4z m74 -12 c-19 -111 -20 -128 -2 -128 9 0 19 9 22 20 3 11 14 20
24 20 12 0 19 7 19 20 0 13 7 20 20 20 26 0 26 -30 0 -37 -10 -3 -22 -14 -25
-24 -4 -10 -15 -19 -26 -19 -12 0 -19 -7 -19 -20 0 -13 -7 -20 -19 -20 -15 0
-20 -10 -25 -45 -6 -36 -11 -45 -27 -45 -17 0 -20 5 -15 28 3 15 13 80 22 145
15 103 20 117 37 117 16 0 18 -5 14 -32z m400 -28 c-6 -55 -5 -60 13 -60 13 0
20 7 20 20 0 17 7 20 40 20 43 0 43 0 34 -24 -4 -10 -18 -16 -40 -16 -27 0
-34 -4 -34 -19 0 -13 -8 -21 -22 -23 -20 -3 -24 -11 -31 -65 -7 -53 -12 -63
-29 -63 -16 0 -19 5 -14 28 3 15 10 74 16 132 13 126 15 130 36 130 15 0 16
-8 11 -60z m226 40 c-5 -19 -23 -26 -36 -14 -11 11 5 34 23 34 13 0 17 -5 13
-20z m226 -2 c0 -13 -6 -77 -12 -143 l-12 -120 -79 -3 c-69 -3 -78 -1 -72 13
3 9 6 21 6 26 0 5 25 9 55 9 30 0 55 4 55 9 0 5 3 23 6 40 6 27 4 31 -15 31
-14 0 -21 6 -21 20 0 13 7 20 19 20 21 0 31 26 31 83 0 30 4 37 20 37 14 0 20
-6 19 -22z m217 -55 c-3 -43 -9 -108 -12 -145 l-7 -68 -73 0 c-72 0 -74 1 -74
25 0 18 -5 25 -20 25 -18 0 -19 5 -14 48 8 65 11 72 30 72 15 0 16 -8 11 -60
l-7 -61 58 3 57 3 3 38 c3 32 0 37 -17 37 -29 0 -26 28 4 40 23 9 25 15 25 65
0 50 2 55 21 55 21 0 22 -3 15 -77z m1224 57 c0 -18 -7 -20 -54 -20 -65 0 -66
-2 -66 -116 l0 -84 54 0 c45 0 54 3 59 20 3 11 12 20 21 20 9 0 16 -8 16 -20
0 -11 -6 -20 -14 -20 -8 0 -16 -10 -18 -22 -3 -20 -10 -23 -60 -26 -56 -3 -58
-2 -58 23 0 19 -5 25 -21 25 -17 0 -20 4 -15 23 3 12 6 59 6 104 0 76 1 81 20
76 15 -4 20 0 20 16 0 19 6 21 55 21 48 0 55 -2 55 -20z m1210 -1 c0 -14 -5
-19 -17 -17 -26 5 -29 38 -4 38 15 0 21 -6 21 -21z m120 -19 c0 -33 3 -40 20
-40 13 0 20 -7 20 -20 0 -14 -7 -20 -21 -20 -15 0 -19 -4 -15 -16 3 -9 6 -36
6 -60 0 -37 3 -44 20 -44 15 0 20 -7 20 -25 0 -30 -26 -34 -35 -5 -3 11 -12
20 -20 20 -16 0 -25 31 -25 87 0 35 -3 42 -22 45 -30 4 -37 38 -9 38 18 0 21
6 21 40 0 33 3 40 20 40 17 0 20 -7 20 -40z m663 26 c9 -22 -2 -26 -74 -26
-58 0 -67 3 -72 20 -5 19 0 20 68 20 53 0 74 -4 78 -14z m-2210 -38 c6 -42 -7
-83 -23 -73 -4 3 -6 14 -3 25 7 27 -27 27 -50 0 -16 -20 -19 -20 -34 -4 -22
22 -24 36 -7 58 9 13 21 17 39 13 17 -3 28 0 32 9 3 8 13 14 23 14 13 0 19
-11 23 -42z m-143 12 c0 -5 -5 -12 -11 -16 -8 -4 -7 -9 2 -16 11 -7 9 -8 -4
-4 -10 3 -23 6 -28 6 -13 0 -11 24 2 37 12 12 39 7 39 -7z m390 -15 c0 -15 -6
-25 -14 -25 -23 0 -28 17 -10 34 21 21 24 20 24 -9z m1818 -3 c3 -20 9 -22 63
-22 52 0 59 -2 59 -20 0 -13 7 -20 20 -20 11 0 20 -6 20 -14 0 -7 3 -34 6 -60
6 -38 4 -46 -10 -46 -11 0 -16 -9 -16 -25 0 -25 -2 -26 -57 -23 -51 3 -58 6
-61 26 -2 14 -10 22 -23 22 -12 0 -19 7 -19 20 0 13 7 20 20 20 13 0 20 -7 20
-20 0 -18 7 -20 55 -20 61 0 62 2 49 83 l-7 37 -52 0 c-44 0 -54 3 -58 20 -3
12 -14 20 -26 20 -16 0 -21 6 -21 26 0 33 33 30 38 -4z m-4451 -42 c-4 -15 0
-20 14 -20 28 0 25 -38 -3 -42 -15 -2 -24 -11 -26 -25 -3 -21 0 -23 47 -23 53
0 61 6 70 54 8 39 41 49 41 13 0 -38 -10 -57 -30 -57 -12 0 -20 -9 -22 -22 -3
-20 -10 -23 -60 -26 l-56 -3 -7 -39 c-5 -31 -11 -40 -27 -40 -17 0 -19 5 -14
28 3 15 13 71 22 125 15 84 20 97 37 97 14 0 18 -5 14 -20z m113 0 c0 -16 -7
-20 -35 -20 -28 0 -35 4 -35 20 0 16 7 20 35 20 28 0 35 -4 35 -20z m110 7 c0
-7 -5 -40 -10 -73 -6 -32 -13 -74 -16 -91 -4 -25 -10 -33 -25 -33 -15 0 -19 5
-15 18 2 9 10 56 17 105 10 73 15 87 31 87 10 0 18 -6 18 -13z m373 -7 c-4
-16 0 -20 17 -20 16 0 20 -4 16 -16 -3 -9 -6 -26 -6 -39 0 -23 -3 -24 -77 -27
-65 -3 -78 -6 -81 -20 -3 -16 6 -18 73 -18 74 0 76 -1 73 -22 -3 -21 -9 -23
-75 -26 -72 -3 -73 -3 -73 23 0 19 -5 25 -21 25 -15 0 -19 5 -15 18 2 9 8 36
11 60 5 32 11 42 26 42 12 0 19 7 19 20 0 18 7 20 59 20 54 0 59 -2 54 -20z
m322 -82 c-9 -88 -13 -103 -29 -106 -17 -4 -18 1 -12 85 9 108 13 123 34 123
16 0 16 -9 7 -102z m163 85 c-2 -13 -14 -19 -40 -21 l-37 -3 -7 -60 c-5 -49
-10 -59 -25 -59 -21 0 -22 6 -13 74 5 36 11 46 25 46 12 0 19 7 19 20 0 17 7
20 41 20 33 0 40 -3 37 -17z m220 0 c-2 -13 -13 -18 -38 -18 -25 0 -36 5 -38
18 -3 14 4 17 38 17 34 0 41 -3 38 -17z m262 -3 c0 -18 -7 -20 -55 -20 -48 0
-55 2 -55 20 0 18 7 20 55 20 48 0 55 -2 55 -20z m220 0 c0 -14 7 -20 21 -20
19 0 21 -4 15 -31 -3 -17 -6 -56 -6 -85 0 -48 -2 -54 -21 -54 -21 0 -21 3 -14
85 l7 85 -56 0 c-54 0 -55 0 -61 -32 -3 -18 -6 -55 -7 -83 -2 -38 -7 -51 -20
-53 -20 -4 -23 23 -11 141 l6 67 73 0 c67 0 74 -2 74 -20z m1040 0 c0 -13 7
-20 20 -20 18 0 20 -7 20 -60 0 -53 -2 -60 -20 -60 -15 0 -20 -7 -20 -25 0
-24 -3 -25 -55 -25 -52 0 -55 1 -55 25 0 18 -5 25 -20 25 -18 0 -20 7 -20 60
0 53 2 60 20 60 13 0 20 7 20 20 0 18 7 20 55 20 48 0 55 -2 55 -20z m147 4
c0 -9 -9 -19 -19 -22 -16 -4 -18 -15 -18 -88 0 -77 -2 -84 -20 -84 -19 0 -20
7 -20 105 l0 105 38 0 c29 0 39 -4 39 -16z m73 -4 c0 -13 7 -20 20 -20 18 0
20 -7 20 -86 0 -76 -2 -85 -17 -82 -15 3 -18 16 -21 86 -3 74 -5 82 -22 82
-17 0 -20 -7 -20 -40 0 -31 -4 -40 -17 -40 -14 0 -19 10 -21 40 -2 34 0 40 18
40 13 0 20 7 20 20 0 13 7 20 20 20 13 0 20 -7 20 -20z m150 0 c0 -14 -7 -20
-21 -20 -20 0 -21 -4 -18 -82 4 -72 2 -83 -13 -86 -14 -3 -18 3 -18 26 0 16
-3 63 -6 105 l-7 77 42 0 c34 0 41 -3 41 -20z m70 -1 c0 -25 -33 -22 -38 4 -2
12 3 17 17 17 15 0 21 -6 21 -21z m115 -59 l7 -80 55 0 56 0 -5 80 c-4 70 -3
80 12 80 14 0 19 -13 24 -61 3 -34 6 -82 6 -105 l0 -44 -75 0 c-73 0 -75 1
-75 25 0 18 -5 25 -20 25 -17 0 -20 7 -20 49 0 27 -3 63 -6 80 -6 27 -4 31 14
31 18 0 21 -9 27 -80z m335 60 c0 -13 7 -20 20 -20 18 0 20 -7 22 -70 0 -38 1
-76 2 -82 1 -7 -6 -14 -15 -16 -18 -3 -29 40 -29 121 l0 47 -56 0 -55 0 2 -82
c2 -76 0 -83 -17 -83 -17 0 -19 9 -21 70 -2 39 -4 85 -6 103 l-3 32 78 0 c71
0 78 -2 78 -20z m110 -32 c0 -29 3 -77 6 -105 6 -48 5 -53 -13 -53 -18 0 -21
9 -27 77 -10 122 -9 133 14 133 17 0 20 -7 20 -52z m224 30 c3 -13 6 -40 6
-60 0 -31 -4 -38 -19 -38 -16 0 -20 9 -23 60 -2 50 0 60 13 60 9 0 19 -10 23
-22z m150 -5 c3 -16 8 -63 12 -105 6 -75 5 -78 -15 -78 -14 0 -21 6 -21 20 0
16 -8 19 -57 22 -50 3 -58 6 -58 23 0 17 6 19 47 16 26 -1 51 0 56 3 4 2 5 32
2 65 -5 53 -4 61 11 61 11 0 19 -10 23 -27z m596 7 c0 -13 7 -20 20 -20 11 0
20 -4 20 -9 0 -5 3 -23 6 -40 l7 -31 -77 0 c-69 0 -76 -2 -76 -20 0 -22 -28
-28 -35 -7 -2 6 -6 33 -10 60 -6 42 -4 47 13 47 11 0 22 -9 25 -20 4 -17 14
-20 56 -20 44 0 51 3 51 20 0 18 -7 20 -54 20 -45 0 -54 3 -59 20 -5 18 0 20
54 20 52 0 59 -2 59 -20z m110 0 c0 -13 7 -20 20 -20 11 0 20 -2 20 -4 0 -2 3
-11 6 -20 4 -12 0 -16 -15 -16 -21 0 -21 -3 -15 -66 6 -61 6 -66 -12 -62 -15
3 -21 18 -30 88 -17 119 -17 120 6 120 13 0 20 -7 20 -20z m110 5 c0 -9 8 -19
18 -22 33 -13 43 -43 13 -43 -11 0 -23 9 -26 20 -5 15 -15 20 -40 20 -24 0
-34 5 -38 20 -4 17 0 20 34 20 28 0 39 -4 39 -15z m116 -41 c5 -46 11 -57 30
-64 29 -11 32 -40 4 -40 -13 0 -20 7 -20 20 0 13 -7 20 -19 20 -21 0 -26 10
-36 78 -6 38 -5 42 13 42 17 0 22 -9 28 -56z m151 -4 c9 -55 8 -60 -9 -60 -12
0 -18 -7 -18 -21 0 -25 -33 -22 -38 4 -2 12 3 17 18 17 18 0 21 4 17 23 -20
81 -20 97 1 97 16 0 21 -10 29 -60z m178 40 c3 -11 15 -20 26 -20 11 0 19 -7
19 -17 0 -10 3 -28 6 -40 6 -22 4 -23 -71 -23 -67 0 -76 -2 -73 -17 3 -15 17
-19 78 -23 69 -5 75 -7 78 -28 3 -22 2 -23 -70 -20 -67 3 -73 5 -76 26 -2 13
-10 22 -22 22 -21 0 -26 10 -35 74 -7 42 -6 46 14 46 14 0 21 -6 21 -20 0 -18
7 -20 55 -20 48 0 55 3 55 20 0 16 -8 19 -57 22 -46 2 -59 7 -61 21 -3 14 5
17 52 17 46 0 56 -3 61 -20z m-4609 -57 c-3 -21 -8 -59 -11 -85 -5 -39 -10
-48 -26 -48 -17 0 -20 5 -15 28 2 15 8 53 11 85 5 48 9 57 27 57 17 0 19 -5
14 -37z m594 17 c0 -18 7 -20 54 -20 45 0 54 3 59 20 3 11 12 20 21 20 12 0
16 -10 16 -40 l0 -40 -75 0 c-68 0 -75 -2 -75 -20 0 -13 -7 -20 -20 -20 -17 0
-20 7 -20 44 0 24 3 51 6 60 9 23 34 20 34 -4z m783 0 c-5 -18 -14 -20 -94
-20 -82 0 -89 2 -89 20 0 19 7 20 94 20 89 0 94 -1 89 -20z m1005 -23 c3 -32
0 -37 -17 -37 -18 0 -21 6 -21 41 0 33 3 40 18 37 12 -2 18 -14 20 -41z m72 4
c0 -21 3 -59 6 -85 6 -42 5 -46 -15 -46 -15 0 -21 6 -21 24 0 12 -3 51 -6 85
-7 58 -6 61 15 61 18 0 21 -6 21 -39z m-970 15 c0 -3 -4 -8 -10 -11 -5 -3 -10
-1 -10 4 0 6 5 11 10 11 6 0 10 -2 10 -4z m-1970 -60 c0 -18 -15 -36 -31 -36
-21 0 -22 1 -13 24 5 14 44 24 44 12z m22 -42 c10 -9 -4 -44 -18 -44 -17 0
-25 15 -18 34 6 16 25 21 36 10z m1200 0 c3 -3 4 -14 1 -25 -5 -17 -14 -19
-79 -19 -65 0 -74 2 -74 18 0 10 3 22 7 25 8 8 137 9 145 1z m3266 -21 c3 -22
0 -23 -72 -23 -75 0 -76 0 -76 25 0 26 1 26 73 23 66 -3 72 -5 75 -25z m372 2
c0 -28 -24 -34 -34 -9 -10 26 -7 34 14 34 15 0 20 -7 20 -25z m-2890 1 c0 -3
-4 -8 -10 -11 -5 -3 -10 -1 -10 4 0 6 5 11 10 11 6 0 10 -2 10 -4z m1840 -30
c0 -2 3 -12 6 -21 6 -14 -3 -16 -72 -13 -66 3 -79 6 -82 21 -3 15 6 17 72 17
42 0 76 -2 76 -4z m658 -238 c2 -19 -4 -31 -21 -42 -21 -15 -27 -15 -55 0 -38
19 -43 53 -11 85 20 20 21 20 52 2 21 -13 33 -28 35 -45z"/>
<path d="M6665 9280 c3 -6 1 -10 -4 -10 -6 0 -11 -7 -11 -15 0 -8 9 -15 20
-15 24 0 28 35 4 44 -8 3 -12 2 -9 -4z"/>
<path d="M7793 7622 c-44 -21 -42 -32 5 -32 45 0 52 4 45 31 -6 22 -7 22 -50
1z"/>
<path d="M3520 6463 c-8 -3 -25 -15 -37 -26 -28 -25 -29 -64 -6 -151 9 -35 13
-71 10 -80 -19 -49 -102 28 -91 84 6 27 -21 90 -37 90 -13 0 -39 -50 -39 -76
0 -52 25 -109 66 -150 45 -46 86 -58 133 -38 55 23 63 69 31 171 -11 35 -17
69 -14 77 9 24 32 26 59 4 22 -17 26 -27 22 -57 -6 -46 27 -108 49 -90 22 18
34 75 23 112 -26 94 -104 154 -169 130z"/>
<path d="M3704 5999 c-71 -56 -130 -107 -132 -114 -2 -7 8 -25 21 -41 l24 -28
48 39 48 40 34 -40 c74 -85 137 -99 197 -41 47 43 49 94 9 153 -58 83 -98 132
-109 133 -6 0 -69 -45 -140 -101z m196 -83 c0 -25 -28 -56 -51 -56 -9 0 -32
17 -49 37 l-33 37 39 33 39 33 27 -33 c15 -17 28 -41 28 -51z"/>
<path d="M3810 5950 l-25 -19 24 -25 c45 -48 96 -19 63 36 -19 33 -28 34 -62
8z"/>
<path d="M4015 5618 l-126 -121 27 -29 c15 -15 31 -28 35 -28 4 0 64 55 133
121 l127 122 -27 28 c-15 16 -31 29 -35 29 -5 0 -65 -55 -134 -122z"/>
<path d="M4235 5409 c-60 -72 -111 -134 -113 -139 -2 -4 11 -18 29 -30 l31
-23 40 47 c22 25 44 46 50 46 7 0 9 -26 4 -82 l-7 -81 33 -34 c17 -18 35 -33
39 -33 4 0 10 51 14 114 l7 115 46 9 c26 6 74 16 107 22 l60 12 -38 33 -37 32
-75 -15 c-42 -8 -78 -12 -81 -9 -4 3 11 27 32 53 l38 46 -29 24 c-17 13 -32
24 -35 24 -3 -1 -54 -59 -115 -131z"/>
<path d="M4619 5113 c-51 -75 -94 -144 -96 -152 -2 -11 30 -38 103 -86 l106
-69 19 23 c11 13 19 26 19 30 0 3 -34 28 -75 55 l-75 49 20 31 c11 17 25 30
31 28 6 -1 38 -21 72 -44 l60 -41 18 24 c22 29 17 35 -62 86 -32 21 -59 40
-59 43 1 3 11 18 24 33 l23 28 68 -46 c38 -25 73 -44 78 -42 6 2 16 12 24 24
13 19 8 24 -84 85 -54 35 -103 68 -110 72 -8 4 -44 -40 -104 -131z"/>
<path d="M5010 4850 l-80 -160 30 -15 c16 -8 34 -15 39 -15 6 0 24 27 41 60
17 33 32 60 35 60 13 0 115 -55 115 -62 0 -5 -11 -31 -25 -58 -14 -27 -25 -56
-25 -63 0 -13 39 -37 60 -37 10 0 160 291 160 310 0 8 -50 40 -64 40 -3 0 -19
-27 -36 -60 l-30 -60 -60 30 c-33 17 -60 33 -60 35 0 3 11 28 25 55 14 27 25
54 25 59 0 9 -50 41 -64 41 -3 0 -42 -72 -86 -160z"/>
<path d="M5532 4708 c-17 -46 -44 -120 -61 -165 l-30 -83 36 -15 c20 -9 40
-12 44 -8 10 10 119 304 119 320 0 10 -49 33 -71 33 -4 0 -21 -37 -37 -82z"/>
<path d="M5807 4703 c-10 -19 -90 -334 -85 -338 3 -3 35 -14 71 -25 162 -46
220 -24 257 99 45 151 14 203 -145 244 -33 9 -67 18 -76 22 -10 3 -19 3 -22
-2z m128 -97 c51 -22 59 -45 40 -118 -22 -86 -38 -101 -98 -95 -26 2 -51 7
-54 11 -4 4 1 38 11 77 40 157 36 152 101 125z"/>
<path d="M5861 4518 c-12 -46 -21 -88 -21 -95 0 -16 55 -26 78 -14 22 12 56
121 47 150 -5 18 -44 41 -69 41 -8 0 -22 -33 -35 -82z"/>
<path d="M6286 4533 c-4 -32 -14 -109 -23 -171 -9 -68 -12 -117 -6 -123 13
-13 185 -26 221 -17 49 13 78 58 92 138 27 159 -18 205 -216 225 l-61 7 -7
-59z m140 -23 c13 0 34 -10 45 -21 19 -19 21 -30 17 -91 -5 -57 -10 -75 -30
-95 -22 -22 -30 -24 -72 -18 -25 4 -46 12 -46 19 0 6 7 54 15 106 8 52 15 99
15 104 0 4 7 5 16 2 9 -3 27 -6 40 -6z"/>
<path d="M6385 4488 c-4 -13 -25 -161 -25 -179 0 -14 76 -11 89 4 6 8 15 42
19 76 7 52 6 66 -7 81 -21 23 -70 35 -76 18z"/>
<path d="M7446 4572 c-2 -4 0 -47 5 -95 6 -49 9 -93 7 -99 -2 -6 -39 32 -82
85 -74 92 -79 96 -109 90 -18 -3 -34 -7 -36 -9 -5 -5 31 -338 38 -345 3 -4 21
-4 40 -2 l33 6 -6 81 c-4 44 -9 89 -12 99 -11 36 14 14 86 -73 65 -80 77 -90
106 -90 18 0 35 4 38 9 5 8 -13 189 -30 309 -6 40 -8 42 -40 42 -18 0 -35 -3
-38 -8z"/>
<path d="M6780 4360 l0 -180 130 0 130 0 0 35 0 35 -90 0 -90 0 0 40 0 40 86
0 85 0 -3 33 -3 32 -83 3 -83 3 3 37 3 37 88 3 87 3 0 29 0 30 -130 0 -130 0
0 -180z"/>
<path d="M1812 3070 c0 -14 2 -19 5 -12 2 6 2 18 0 25 -3 6 -5 1 -5 -13z"/>
<path d="M2511 3044 c0 -11 3 -14 6 -6 3 7 2 16 -1 19 -3 4 -6 -2 -5 -13z"/>
<path d="M1741 2994 c0 -11 3 -14 6 -6 3 7 2 16 -1 19 -3 4 -6 -2 -5 -13z"/>
<path d="M1981 2911 c-6 -20 -24 -99 -41 -176 -70 -316 -113 -491 -127 -513
-13 -22 -13 -23 4 -14 10 6 93 10 184 10 92 -1 171 2 177 5 5 4 13 24 16 44 4
21 30 156 58 300 43 220 54 260 67 256 12 -4 13 -3 3 5 -10 7 -11 21 -4 61 5
28 7 51 3 52 -3 1 -79 2 -168 4 l-163 3 -9 -37z m77 -359 c31 -21 78 -51 105
-66 36 -21 47 -34 47 -52 l0 -24 -52 26 c-60 30 -164 99 -173 114 -7 12 0 40
10 40 3 0 32 -17 63 -38z"/>
<path d="M1720 2920 c-8 -5 -12 -11 -9 -14 2 -3 11 -1 19 4 8 5 12 11 9 14 -2
3 -11 1 -19 -4z"/>
<path d="M1951 2874 c0 -11 3 -14 6 -6 3 7 2 16 -1 19 -3 4 -6 -2 -5 -13z"/>
<path d="M2505 2789 c-4 -6 -5 -12 -2 -15 2 -3 7 2 10 11 7 17 1 20 -8 4z"/>
<path d="M2528 2758 c-22 -22 -23 -38 -2 -38 9 0 14 6 11 13 -2 6 3 17 11 23
8 6 11 13 6 16 -5 3 -17 -3 -26 -14z"/>
<path d="M1646 2645 c-3 -8 -1 -15 4 -15 6 0 10 7 10 15 0 8 -2 15 -4 15 -2 0
-6 -7 -10 -15z"/>
<path d="M1647 2591 c-4 -17 -3 -21 5 -13 5 5 8 16 6 23 -3 8 -7 3 -11 -10z"/>
<path d="M2520 2599 c0 -5 5 -7 10 -4 6 3 10 8 10 11 0 2 -4 4 -10 4 -5 0 -10
-5 -10 -11z"/>
<path d="M1520 2559 c0 -5 5 -7 10 -4 6 3 10 8 10 11 0 2 -4 4 -10 4 -5 0 -10
-5 -10 -11z"/>
<path d="M2477 2555 c-4 -8 -2 -17 3 -20 6 -4 10 3 10 14 0 25 -6 27 -13 6z"/>
<path d="M2512 2540 c0 -14 2 -19 5 -12 2 6 2 18 0 25 -3 6 -5 1 -5 -13z"/>
<path d="M1636 2534 c-5 -14 -4 -15 9 -4 17 14 19 20 6 20 -5 0 -12 -7 -15
-16z"/>
<path d="M2491 2504 c0 -11 3 -14 6 -6 3 7 2 16 -1 19 -3 4 -6 -2 -5 -13z"/>
<path d="M2426 2495 c-9 -26 -7 -32 5 -12 6 10 9 21 6 23 -2 3 -7 -2 -11 -11z"/>
<path d="M1585 2460 c3 -5 8 -10 11 -10 2 0 4 5 4 10 0 6 -5 10 -11 10 -5 0
-7 -4 -4 -10z"/>
<path d="M2507 2463 c-4 -3 -7 -11 -7 -17 0 -6 5 -5 12 2 6 6 9 14 7 17 -3 3
-9 2 -12 -2z"/>
<path d="M1791 2384 c0 -11 3 -14 6 -6 3 7 2 16 -1 19 -3 4 -6 -2 -5 -13z"/>
<path d="M1823 2345 c-7 -8 -9 -16 -4 -19 5 -3 12 1 15 10 8 22 4 25 -11 9z"/>
<path d="M1767 2261 c-4 -17 -3 -21 5 -13 5 5 8 16 6 23 -3 8 -7 3 -11 -10z"/>
<path d="M1803 2260 c-1 -11 2 -20 7 -20 4 0 7 7 6 15 -3 23 -12 26 -13 5z"/>
<path d="M1756 2203 c-6 -14 -5 -15 5 -6 7 7 10 15 7 18 -3 3 -9 -2 -12 -12z"/>
<path d="M3096 3233 c-6 -14 -5 -15 5 -6 7 7 10 15 7 18 -3 3 -9 -2 -12 -12z"/>
<path d="M3090 3200 c0 -5 5 -10 11 -10 5 0 7 5 4 10 -3 6 -8 10 -11 10 -2 0
-4 -4 -4 -10z"/>
<path d="M3091 3144 c0 -11 3 -14 6 -6 3 7 2 16 -1 19 -3 4 -6 -2 -5 -13z"/>
<path d="M3246 3125 c-9 -26 -7 -32 5 -12 6 10 9 21 6 23 -2 3 -7 -2 -11 -11z"/>
<path d="M4080 3113 c0 -21 3 -24 9 -14 5 8 7 20 4 28 -8 21 -13 15 -13 -14z"/>
<path d="M3811 3085 c-1 -27 -4 -68 -8 -89 -4 -28 -3 -37 5 -32 7 4 12 2 12
-3 0 -6 -5 -11 -12 -11 -6 0 -9 -2 -6 -5 3 -3 17 -1 32 4 20 8 26 17 25 38 0
16 -3 22 -6 15 -2 -6 -10 -9 -16 -5 -7 4 -6 -1 2 -10 8 -10 11 -20 7 -24 -3
-3 -6 -1 -6 5 0 7 -6 12 -13 12 -10 0 -12 15 -9 58 2 32 2 67 -1 78 -2 10 -5
-3 -6 -31z"/>
<path d="M2976 3083 c-11 -40 -17 -98 -8 -83 10 16 25 100 18 100 -3 0 -7 -8
-10 -17z"/>
<path d="M3680 3071 c0 -17 2 -31 4 -31 8 0 13 51 5 56 -5 3 -9 -9 -9 -25z"/>
<path d="M3242 3070 c0 -14 2 -19 5 -12 2 6 2 18 0 25 -3 6 -5 1 -5 -13z"/>
<path d="M3842 3070 c0 -14 2 -19 5 -12 2 6 2 18 0 25 -3 6 -5 1 -5 -13z"/>
<path d="M3712 3050 c0 -19 2 -27 5 -17 2 9 2 25 0 35 -3 9 -5 1 -5 -18z"/>
<path d="M4080 3042 c0 -17 4 -33 9 -36 10 -7 8 50 -2 60 -4 4 -7 -7 -7 -24z"/>
<path d="M3232 3020 c0 -14 2 -19 5 -12 2 6 2 18 0 25 -3 6 -5 1 -5 -13z"/>
<path d="M3330 3010 c0 -16 2 -30 4 -30 2 0 6 14 8 30 3 17 1 30 -4 30 -4 0
-8 -13 -8 -30z"/>
<path d="M3380 3027 c0 -9 -7 -20 -16 -25 -15 -8 -15 -10 0 -15 11 -5 18 1 22
19 4 14 4 28 0 31 -3 4 -6 -1 -6 -10z"/>
<path d="M3679 3003 c0 -5 -2 -16 -4 -25 -2 -10 1 -20 5 -23 5 -3 8 8 8 25 -1
27 -7 42 -9 23z"/>
<path d="M3626 2983 c-6 -14 -5 -15 5 -6 7 7 10 15 7 18 -3 3 -9 -2 -12 -12z"/>
<path d="M3744 2966 c-3 -8 -4 -27 -2 -43 3 -23 5 -20 9 15 5 43 2 53 -7 28z"/>
<path d="M3540 2954 c0 -8 5 -12 10 -9 6 3 10 10 10 16 0 5 -4 9 -10 9 -5 0
-10 -7 -10 -16z"/>
<path d="M4066 2957 c3 -10 9 -15 12 -12 3 3 0 11 -7 18 -10 9 -11 8 -5 -6z"/>
<path d="M3221 2944 c0 -11 3 -14 6 -6 3 7 2 16 -1 19 -3 4 -6 -2 -5 -13z"/>
<path d="M3701 2923 c0 -25 1 -26 9 -8 12 27 12 35 0 35 -5 0 -10 -12 -9 -27z"/>
<path d="M3407 2933 c-4 -3 -7 -11 -7 -17 0 -6 5 -5 12 2 6 6 9 14 7 17 -3 3
-9 2 -12 -2z"/>
<path d="M3837 2920 c-3 -11 -1 -20 4 -20 5 0 9 9 9 20 0 11 -2 20 -4 20 -2 0
-6 -9 -9 -20z"/>
<path d="M4075 2919 c-4 -6 -4 -13 -1 -16 3 -4 6 -1 6 6 0 7 5 9 10 6 6 -3 10
-1 10 4 0 14 -17 14 -25 0z"/>
<path d="M3832 2860 c0 -14 2 -19 5 -12 2 6 2 18 0 25 -3 6 -5 1 -5 -13z"/>
<path d="M3692 2850 c0 -14 2 -19 5 -12 2 6 2 18 0 25 -3 6 -5 1 -5 -13z"/>
<path d="M3355 2850 c-3 -5 -1 -10 4 -10 6 0 11 5 11 10 0 6 -2 10 -4 10 -3 0
-8 -4 -11 -10z"/>
<path d="M3560 2820 c0 -11 -7 -20 -15 -20 -8 0 -15 -5 -15 -11 0 -8 -4 -8
-14 1 -12 9 -16 5 -22 -25 -6 -34 -30 -45 -28 -12 1 9 -4 13 -12 10 -9 -3 -11
2 -7 19 5 23 5 23 -10 3 l-16 -20 -1 20 -1 20 -9 -20 c-8 -19 -9 -19 -9 3 -1
31 -16 28 -19 -5 -1 -15 -9 -31 -17 -36 -9 -5 -15 -21 -14 -40 l1 -32 8 30 8
30 1 -37 c0 -20 4 -38 9 -41 4 -2 1 -2 -7 0 -18 4 -6 -47 15 -63 19 -15 18
-25 -2 -17 -10 4 -15 1 -13 -8 1 -8 -3 -32 -9 -54 -14 -49 -15 -95 -1 -55 6
17 8 0 5 -55 -2 -44 -2 -71 1 -60 2 11 7 27 10 35 3 8 7 31 9 50 5 55 11 94
17 110 11 31 16 90 6 85 -5 -4 -9 -3 -9 2 0 4 13 15 29 25 l29 16 -13 -32
c-15 -35 -26 -111 -25 -169 1 -29 -2 -37 -12 -31 -10 6 -10 4 1 -9 7 -9 10
-17 5 -17 -5 0 -2 -5 6 -10 8 -5 10 -10 4 -10 -6 0 -11 -22 -11 -52 l-1 -53
15 48 c7 26 17 47 21 47 9 0 9 1 17 135 5 87 8 102 27 116 34 27 48 13 48 -46
0 -56 -7 -88 -19 -81 -4 3 -8 -9 -9 -25 -1 -16 2 -29 8 -29 5 0 6 7 3 17 -4
10 -2 14 4 10 6 -4 9 -38 7 -84 -2 -71 -2 -74 7 -33 5 25 11 72 13 105 2 42 7
60 17 60 10 0 13 13 10 49 -2 31 1 46 8 42 5 -4 10 2 9 11 0 10 3 28 5 40 3
13 2 25 -3 28 -5 3 -7 -4 -5 -15 2 -11 0 -20 -6 -20 -12 0 -12 37 1 45 5 3 7
11 4 18 -3 8 3 13 15 13 12 0 17 -5 13 -14 -3 -8 0 -17 7 -21 9 -6 9 -15 0
-37 -13 -33 -18 -84 -6 -77 4 2 7 11 7 19 0 8 3 13 8 11 6 -5 10 15 12 67 1
11 -5 23 -12 27 -9 6 -6 9 10 9 12 0 22 5 22 11 0 6 -6 9 -13 6 -9 -3 -12 4
-11 24 1 16 -2 29 -7 29 -5 0 -9 -4 -9 -10 0 -5 -6 -10 -14 -10 -7 0 -19 -7
-26 -15 -19 -23 -31 1 -23 48 3 20 3 37 -1 37 -3 0 -6 -9 -6 -20z m-41 -98
c-8 -20 -6 -29 10 -43 10 -10 22 -15 26 -11 4 4 5 0 3 -8 -3 -8 -12 -13 -19
-11 -8 2 -20 4 -26 4 -7 0 -14 7 -14 16 -1 17 -1 18 5 54 3 12 5 29 5 37 1 13
3 13 10 1 6 -9 5 -24 0 -39z m37 0 c-2 -45 -21 -41 -22 6 -2 34 1 40 11 32 7
-6 12 -23 11 -38z m-140 16 c-3 -13 -6 -29 -6 -35 0 -7 -7 -13 -16 -13 -15 0
-15 2 -1 24 12 17 13 26 4 35 -8 8 -6 11 7 11 14 0 17 -5 12 -22z m29 2 c3 -5
1 -10 -4 -10 -6 0 -11 5 -11 10 0 6 2 10 4 10 3 0 8 -4 11 -10z m-13 -62 c-6
-6 -8 -1 -7 14 3 32 7 36 12 14 3 -10 1 -22 -5 -28z m53 -8 c0 -16 -3 -30 -7
-30 -10 0 -10 44 -1 53 9 10 9 10 8 -23z m85 -70 c0 -5 -4 -10 -10 -10 -5 0
-10 5 -10 10 0 6 5 10 10 10 6 0 10 -4 10 -10z m-13 -52 c-3 -7 -5 -2 -5 12 0
14 2 19 5 13 2 -7 2 -19 0 -25z"/>
<path d="M3299 2788 c-8 -7 -13 -12 -10 -11 10 6 31 -29 32 -54 0 -24 1 -25 8
-8 5 11 7 31 5 45 -1 14 -3 28 -3 33 -1 11 -15 9 -32 -5z"/>
<path d="M3075 2780 c-3 -5 -1 -10 4 -10 6 0 11 5 11 10 0 6 -2 10 -4 10 -3 0
-8 -4 -11 -10z"/>
<path d="M3355 2770 c-3 -5 -1 -10 4 -10 6 0 11 5 11 10 0 6 -2 10 -4 10 -3 0
-8 -4 -11 -10z"/>
<path d="M3867 2760 c6 -22 11 -24 33 -10 13 8 12 10 -2 10 -10 0 -18 5 -18
10 0 6 -4 10 -9 10 -5 0 -7 -9 -4 -20z"/>
<path d="M3920 2751 c0 -11 -8 -22 -17 -24 -14 -4 -12 -5 5 -6 17 -1 22 4 22
24 0 14 -2 25 -5 25 -3 0 -5 -9 -5 -19z"/>
<path d="M3229 2745 c-2 -23 -2 -84 0 -102 0 -7 6 -13 12 -13 5 0 8 4 5 8 -11
19 -14 91 -3 95 9 3 9 8 0 18 -11 11 -13 10 -14 -6z"/>
<path d="M3310 2674 c0 -8 -4 -13 -9 -10 -4 3 -17 -4 -27 -16 -11 -12 -14 -19
-9 -16 6 4 10 -6 10 -23 0 -16 -4 -29 -9 -29 -4 0 -6 -13 -4 -30 3 -16 1 -30
-4 -30 -4 0 -8 -11 -8 -25 0 -17 -4 -23 -14 -19 -8 3 -16 -2 -19 -13 -2 -10
-4 -1 -3 19 1 36 16 56 16 21 0 -25 6 -12 13 27 6 32 6 34 -8 16 -13 -17 -15
-17 -15 -3 0 9 9 21 20 27 11 6 20 21 20 33 0 14 -3 18 -8 10 -6 -9 -14 -3
-27 20 l-19 32 -6 -25 c-4 -14 -4 -34 0 -45 4 -10 3 -36 -2 -58 -4 -21 -6 -43
-2 -48 3 -5 2 -15 -3 -22 -5 -7 -10 -25 -11 -41 -1 -17 -7 -33 -12 -36 -6 -4
-3 -13 9 -24 14 -13 18 -27 15 -59 -2 -22 -8 -43 -12 -46 -10 -7 -14 -91 -4
-91 4 0 8 19 9 43 2 23 7 43 12 45 6 2 7 10 4 18 -3 9 1 14 12 14 14 0 15 3 5
15 -6 8 -10 20 -7 27 3 8 6 6 6 -5 1 -27 21 -10 21 18 0 13 5 27 10 30 14 9
12 42 -2 48 -8 3 -6 6 5 6 21 1 27 -41 12 -89 -7 -22 -6 -23 8 -9 16 16 26
103 14 115 -4 4 -7 19 -6 33 l1 26 7 -25 7 -25 7 25 c9 34 9 42 -3 35 -5 -3
-10 1 -10 9 0 9 -4 16 -10 16 -5 0 -10 8 -10 18 0 14 2 15 10 2 7 -11 10 2 10
43 0 32 4 56 8 53 4 -2 8 -30 7 -60 0 -31 3 -56 8 -56 4 0 8 24 8 53 1 28 3
62 4 75 1 12 -2 22 -6 22 -5 0 -9 -7 -9 -16z m-80 -80 c0 -8 -4 -12 -10 -9 -5
3 -10 10 -10 16 0 5 5 9 10 9 6 0 10 -7 10 -16z m37 -126 c-3 -8 -6 -5 -6 6
-1 11 2 17 5 13 3 -3 4 -12 1 -19z m-45 -57 c8 12 9 12 5 -1 -7 -26 -34 -24
-31 2 4 34 6 36 11 9 4 -19 7 -21 15 -10z"/>
<path d="M3151 2654 c0 -11 3 -14 6 -6 3 7 2 16 -1 19 -3 4 -6 -2 -5 -13z"/>
<path d="M3336 2622 c-3 -6 -2 -13 4 -17 6 -4 8 -11 5 -16 -4 -5 -1 -9 4 -9
13 0 14 20 2 39 -5 8 -11 9 -15 3z"/>
<path d="M3510 2596 c0 -20 2 -36 4 -36 8 0 12 61 4 66 -4 3 -8 -11 -8 -30z"/>
<path d="M3483 2573 c-1 -35 1 -42 7 -28 11 26 12 75 2 75 -4 0 -8 -21 -9 -47z"/>
<path d="M3147 2589 c7 -7 15 -10 18 -7 3 3 -2 9 -12 12 -14 6 -15 5 -6 -5z"/>
<path d="M3140 2545 c0 -8 4 -15 10 -15 5 0 7 7 4 15 -4 8 -8 15 -10 15 -2 0
-4 -7 -4 -15z"/>
<path d="M3510 2540 c-9 -6 -10 -10 -3 -10 6 0 15 5 18 10 8 12 4 12 -15 0z"/>
<path d="M3604 2531 c0 -11 4 -17 8 -15 4 3 8 12 8 20 0 8 -4 14 -8 14 -4 0
-8 -9 -8 -19z"/>
<path d="M3631 2534 c0 -11 3 -14 6 -6 3 7 2 16 -1 19 -3 4 -6 -2 -5 -13z"/>
<path d="M3133 2499 c-1 -10 2 -19 8 -19 11 0 12 27 1 34 -4 2 -9 -4 -9 -15z"/>
<path d="M3322 2455 c-12 -44 -17 -113 -8 -104 6 6 28 141 23 145 -1 2 -8 -17
-15 -41z"/>
<path d="M3010 2465 c0 -8 4 -15 10 -15 5 0 7 7 4 15 -4 8 -8 15 -10 15 -2 0
-4 -7 -4 -15z"/>
<path d="M3110 2472 c0 -7 5 -12 11 -12 6 0 8 -7 4 -17 -5 -15 -4 -16 6 -5 11
10 10 15 -4 29 -11 11 -17 13 -17 5z"/>
<path d="M3624 2449 c-3 -6 -1 -16 5 -22 8 -8 11 -5 11 11 0 24 -5 28 -16 11z"/>
<path d="M3090 2420 c0 -16 2 -30 4 -30 2 0 6 14 8 30 3 17 1 30 -4 30 -4 0
-8 -13 -8 -30z"/>
<path d="M3146 2424 c-4 -9 -4 -19 -1 -22 2 -3 7 3 11 12 4 9 4 19 1 22 -2 3
-7 -3 -11 -12z"/>
<path d="M3056 2413 c-6 -14 -5 -15 5 -6 7 7 10 15 7 18 -3 3 -9 -2 -12 -12z"/>
<path d="M3501 2398 c0 -28 2 -30 9 -13 12 28 12 45 0 45 -5 0 -10 -15 -9 -32z"/>
<path d="M3341 2394 c0 -11 3 -14 6 -6 3 7 2 16 -1 19 -3 4 -6 -2 -5 -13z"/>
<path d="M3810 2399 c0 -5 5 -7 10 -4 6 3 10 8 10 11 0 2 -4 4 -10 4 -5 0 -10
-5 -10 -11z"/>
<path d="M3620 2370 c0 -16 2 -30 4 -30 2 0 6 14 8 30 3 17 1 30 -4 30 -4 0
-8 -13 -8 -30z"/>
<path d="M3030 2360 c-6 -11 -9 -29 -7 -38 4 -13 5 -13 6 4 0 11 6 25 13 32 6
6 9 14 6 18 -4 3 -12 -4 -18 -16z"/>
<path d="M3070 2370 c0 -6 4 -9 9 -5 5 3 12 -5 14 -17 5 -22 5 -21 4 1 -2 24
-27 44 -27 21z"/>
<path d="M3341 2354 c0 -11 3 -14 6 -6 3 7 2 16 -1 19 -3 4 -6 -2 -5 -13z"/>
<path d="M3472 2350 c0 -14 2 -19 5 -12 2 6 2 18 0 25 -3 6 -5 1 -5 -13z"/>
<path d="M2810 2339 c0 -5 5 -7 10 -4 6 3 10 8 10 11 0 2 -4 4 -10 4 -5 0 -10
-5 -10 -11z"/>
<path d="M3751 2324 c0 -11 3 -14 6 -6 3 7 2 16 -1 19 -3 4 -6 -2 -5 -13z"/>
<path d="M2806 2303 c-6 -14 -5 -15 5 -6 7 7 10 15 7 18 -3 3 -9 -2 -12 -12z"/>
<path d="M3581 2304 c0 -11 3 -14 6 -6 3 7 2 16 -1 19 -3 4 -6 -2 -5 -13z"/>
<path d="M3611 2304 c0 -11 3 -14 6 -6 3 7 2 16 -1 19 -3 4 -6 -2 -5 -13z"/>
<path d="M2865 2260 c-3 -5 -1 -10 4 -10 6 0 11 5 11 10 0 6 -2 10 -4 10 -3 0
-8 -4 -11 -10z"/>
<path d="M3291 2204 c0 -11 3 -14 6 -6 3 7 2 16 -1 19 -3 4 -6 -2 -5 -13z"/>
<path d="M3242 2178 c-1 -14 -5 -35 -8 -45 -5 -14 -4 -15 5 -7 7 7 11 26 8 45
-3 28 -4 29 -5 7z"/>
<path d="M2851 2174 c0 -11 3 -14 6 -6 3 7 2 16 -1 19 -3 4 -6 -2 -5 -13z"/>
<path d="M3516 2174 c-4 -9 -4 -19 -1 -22 2 -3 7 3 11 12 4 9 4 19 1 22 -2 3
-7 -3 -11 -12z"/>
<path d="M3830 2179 c0 -5 5 -7 10 -4 6 3 10 8 10 11 0 2 -4 4 -10 4 -5 0 -10
-5 -10 -11z"/>
<path d="M3735 2169 c-4 -6 -5 -12 -2 -15 2 -3 7 2 10 11 7 17 1 20 -8 4z"/>
<path d="M3205 2140 c-4 -17 -5 -34 -2 -36 2 -3 7 10 11 27 8 42 0 50 -9 9z"/>
<path d="M3565 2130 c-4 -23 -5 -43 -2 -46 2 -3 7 14 11 37 4 23 5 44 2 46 -2
2 -7 -14 -11 -37z"/>
<path d="M3163 2145 c0 -8 4 -12 9 -9 5 3 6 10 3 15 -9 13 -12 11 -12 -6z"/>
<path d="M3731 2124 c0 -11 3 -14 6 -6 3 7 2 16 -1 19 -3 4 -6 -2 -5 -13z"/>
<path d="M3983 2095 c0 -8 4 -12 9 -9 4 3 8 9 8 15 0 5 -4 9 -8 9 -5 0 -9 -7
-9 -15z"/>
<path d="M3877 1888 c-2 -7 -1 -22 3 -33 6 -16 8 -13 7 13 0 35 -2 39 -10 20z"/>
<path d="M4790 3203 c0 -5 5 -15 10 -23 8 -12 10 -11 10 8 0 12 -4 22 -10 22
-5 0 -10 -3 -10 -7z"/>
<path d="M5141 3184 c0 -11 3 -14 6 -6 3 7 2 16 -1 19 -3 4 -6 -2 -5 -13z"/>
<path d="M4807 3116 c-4 -10 -5 -21 -2 -24 9 -9 17 6 13 25 -3 17 -4 17 -11
-1z"/>
<path d="M5159 3062 c-3 -20 -2 -29 4 -23 5 5 7 19 5 32 -3 20 -5 19 -9 -9z"/>
<path d="M5270 3031 c0 -5 7 -12 16 -15 14 -5 15 -4 4 9 -14 17 -20 19 -20 6z"/>
<path d="M5192 3000 c0 -14 2 -19 5 -12 2 6 2 18 0 25 -3 6 -5 1 -5 -13z"/>
<path d="M4287 2793 c-10 -9 -9 -23 1 -23 5 0 9 7 9 15 0 17 -1 18 -10 8z"/>
<path d="M4415 2781 c-8 -26 2 -42 14 -22 7 11 10 11 14 0 3 -8 6 -9 6 -3 1 5
-5 19 -13 29 -13 18 -14 18 -21 -4z"/>
<path d="M4362 2760 c0 -14 2 -19 5 -12 2 6 2 18 0 25 -3 6 -5 1 -5 -13z"/>
<path d="M4410 2730 c-12 -7 -12 -10 -1 -10 8 0 11 -6 7 -16 -3 -8 -2 -12 4
-9 6 3 10 12 10 20 0 7 6 16 13 18 8 4 7 6 -3 6 -8 0 -22 -4 -30 -9z"/>
<path d="M4356 2722 c-2 -4 -1 -14 5 -22 7 -12 9 -10 9 8 0 23 -5 28 -14 14z"/>
<path d="M4276 2685 c4 -8 8 -15 10 -15 2 0 4 7 4 15 0 8 -4 15 -10 15 -5 0
-7 -7 -4 -15z"/>
<path d="M4605 2689 c-4 -6 -5 -12 -2 -15 2 -3 7 2 10 11 7 17 1 20 -8 4z"/>
<path d="M4408 2673 c7 -3 16 -2 19 1 4 3 -2 6 -13 5 -11 0 -14 -3 -6 -6z"/>
<path d="M4260 2605 c0 -8 2 -15 4 -15 2 0 6 7 10 15 3 8 1 15 -4 15 -6 0 -10
-7 -10 -15z"/>
<path d="M4580 2571 c0 -6 4 -13 10 -16 6 -3 7 1 4 9 -7 18 -14 21 -14 7z"/>
<path d="M4575 2480 c-3 -5 -1 -10 4 -10 6 0 11 5 11 10 0 6 -2 10 -4 10 -3 0
-8 -4 -11 -10z"/>
<path d="M4255 2449 c-4 -6 -5 -12 -2 -15 2 -3 7 2 10 11 7 17 1 20 -8 4z"/>
<path d="M5480 3190 c0 -11 4 -20 9 -20 5 0 7 9 4 20 -3 11 -7 20 -9 20 -2 0
-4 -9 -4 -20z"/>
<path d="M6101 2964 c0 -11 3 -14 6 -6 3 7 2 16 -1 19 -3 4 -6 -2 -5 -13z"/>
<path d="M5895 2939 c-8 -12 -4 -145 5 -160 5 -7 37 -12 89 -13 l81 -1 0 70
c0 114 1 112 -91 113 -43 0 -81 -4 -84 -9z"/>
<path d="M6161 2864 c0 -11 3 -14 6 -6 3 7 2 16 -1 19 -3 4 -6 -2 -5 -13z"/>
<path d="M6350 2800 c0 -11 4 -20 9 -20 5 0 7 9 4 20 -3 11 -7 20 -9 20 -2 0
-4 -9 -4 -20z"/>
<path d="M6298 2778 c13 -13 17 -32 4 -24 -4 2 -7 -8 -6 -22 1 -31 16 -36 21
-7 5 30 -6 65 -19 65 -9 0 -9 -3 0 -12z"/>
<path d="M6345 2760 c3 -5 8 -10 11 -10 2 0 4 5 4 10 0 6 -5 10 -11 10 -5 0
-7 -4 -4 -10z"/>
<path d="M6370 2756 c0 -9 5 -16 10 -16 6 0 10 4 10 9 0 6 -4 13 -10 16 -5 3
-10 -1 -10 -9z"/>
<path d="M6152 2720 c0 -14 2 -19 5 -12 2 6 2 18 0 25 -3 6 -5 1 -5 -13z"/>
<path d="M6380 2716 c0 -8 4 -17 9 -20 5 -4 7 3 4 14 -6 23 -13 26 -13 6z"/>
<path d="M6446 2607 c3 -10 9 -15 12 -12 3 3 0 11 -7 18 -10 9 -11 8 -5 -6z"/>
<path d="M6288 2557 c-3 -15 -1 -30 4 -33 15 -10 18 0 9 32 l-8 29 -5 -28z"/>
<path d="M6076 2533 c-6 -14 -5 -15 5 -6 7 7 10 15 7 18 -3 3 -9 -2 -12 -12z"/>
<path d="M6331 2404 c0 -11 3 -14 6 -6 3 7 2 16 -1 19 -3 4 -6 -2 -5 -13z"/>
<path d="M7016 2968 c2 -13 13 -90 24 -173 11 -82 23 -165 26 -183 l5 -32 84
2 c98 3 93 -5 75 121 -6 40 -15 106 -20 147 -6 41 -13 90 -16 108 l-5 32 -88
0 c-86 0 -88 -1 -85 -22z"/>
<path d="M6682 2960 c0 -14 2 -19 5 -12 2 6 2 18 0 25 -3 6 -5 1 -5 -13z"/>
<path d="M7482 2930 c0 -14 2 -19 5 -12 2 6 2 18 0 25 -3 6 -5 1 -5 -13z"/>
<path d="M7360 2861 c0 -11 4 -22 9 -25 4 -3 6 6 3 19 -5 30 -12 33 -12 6z"/>
<path d="M7433 2834 c1 -21 6 -30 15 -27 8 3 9 10 4 17 -5 6 -12 18 -15 26 -3
8 -4 1 -4 -16z"/>
<path d="M7340 2801 c0 -5 5 -13 10 -16 6 -3 10 -2 10 4 0 5 -4 13 -10 16 -5
3 -10 2 -10 -4z"/>
<path d="M7390 2732 c0 -11 4 -23 8 -26 10 -6 9 30 -1 40 -4 4 -7 -2 -7 -14z"/>
<path d="M6720 2651 c0 -6 4 -13 10 -16 6 -3 7 1 4 9 -7 18 -14 21 -14 7z"/>
<path d="M7310 2636 c0 -9 5 -16 10 -16 6 0 10 4 10 9 0 6 -4 13 -10 16 -5 3
-10 -1 -10 -9z"/>
<path d="M6731 2584 c0 -11 3 -14 6 -6 3 7 2 16 -1 19 -3 4 -6 -2 -5 -13z"/>
<path d="M7442 2575 c0 -16 2 -22 5 -12 2 9 2 23 0 30 -3 6 -5 -1 -5 -18z"/>
<path d="M7271 2504 c0 -11 3 -14 6 -6 3 7 2 16 -1 19 -3 4 -6 -2 -5 -13z"/>
<path d="M7320 2493 c0 -4 5 -15 10 -23 8 -13 10 -13 10 2 0 9 -4 20 -10 23
-5 3 -10 3 -10 -2z"/>
<path d="M6740 2458 c0 -9 5 -20 10 -23 13 -8 13 5 0 25 -8 13 -10 13 -10 -2z"/>
<path d="M7331 2434 c0 -11 3 -14 6 -6 3 7 2 16 -1 19 -3 4 -6 -2 -5 -13z"/>
<path d="M7181 2414 c0 -11 3 -14 6 -6 3 7 2 16 -1 19 -3 4 -6 -2 -5 -13z"/>
<path d="M7051 2394 c0 -11 3 -14 6 -6 3 7 2 16 -1 19 -3 4 -6 -2 -5 -13z"/>
<path d="M7351 2384 c0 -11 3 -14 6 -6 3 7 2 16 -1 19 -3 4 -6 -2 -5 -13z"/>
<path d="M6820 2295 c0 -14 4 -25 9 -25 4 0 6 11 3 25 -2 14 -6 25 -8 25 -2 0
-4 -11 -4 -25z"/>
<path d="M7421 2304 c0 -11 3 -14 6 -6 3 7 2 16 -1 19 -3 4 -6 -2 -5 -13z"/>
<path d="M6755 2191 c-3 -5 -1 -12 5 -16 5 -3 10 1 10 9 0 18 -6 21 -15 7z"/>
<path d="M7497 2193 c-2 -5 0 -19 4 -33 7 -23 7 -22 6 8 -1 33 -3 37 -10 25z"/>
<path d="M7560 2159 c0 -5 5 -7 10 -4 6 3 10 8 10 11 0 2 -4 4 -10 4 -5 0 -10
-5 -10 -11z"/>
<path d="M7670 2129 c0 -13 5 -31 10 -39 7 -11 8 -5 4 20 -8 43 -14 51 -14 19z"/>
<path d="M7936 2975 c4 -8 8 -15 10 -15 2 0 4 7 4 15 0 8 -4 15 -10 15 -5 0
-7 -7 -4 -15z"/>
<path d="M7956 2905 c8 -37 14 -45 14 -19 0 10 -5 26 -10 34 -8 11 -9 7 -4
-15z"/>
<path d="M7885 2861 c-3 -5 -1 -12 5 -16 5 -3 10 1 10 9 0 18 -6 21 -15 7z"/>
<path d="M8037 2850 c3 -11 9 -22 13 -25 5 -3 6 4 3 15 -3 11 -9 22 -13 25 -5
3 -6 -4 -3 -15z"/>
<path d="M8066 2787 c3 -10 9 -15 12 -12 3 3 0 11 -7 18 -10 9 -11 8 -5 -6z"/>
<path d="M7965 2740 c-3 -5 1 -10 9 -10 9 0 16 5 16 10 0 6 -4 10 -9 10 -6 0
-13 -4 -16 -10z"/>
<path d="M7791 2724 c0 -11 3 -14 6 -6 3 7 2 16 -1 19 -3 4 -6 -2 -5 -13z"/>
<path d="M7801 2674 c0 -11 3 -14 6 -6 3 7 2 16 -1 19 -3 4 -6 -2 -5 -13z"/>
<path d="M8180 2681 c0 -5 5 -13 10 -16 6 -3 10 -2 10 4 0 5 -4 13 -10 16 -5
3 -10 2 -10 -4z"/>
<path d="M7983 2628 c2 -7 10 -12 16 -10 6 1 11 -3 11 -10 0 -6 3 -8 6 -5 8 8
-14 37 -28 37 -5 0 -8 -6 -5 -12z"/>
<path d="M8051 2594 c0 -11 3 -14 6 -6 3 7 2 16 -1 19 -3 4 -6 -2 -5 -13z"/>
<path d="M7861 2584 c0 -11 3 -14 6 -6 3 7 2 16 -1 19 -3 4 -6 -2 -5 -13z"/>
<path d="M7980 2589 c0 -5 5 -7 10 -4 6 3 10 8 10 11 0 2 -4 4 -10 4 -5 0 -10
-5 -10 -11z"/>
<path d="M7981 2554 c0 -11 3 -14 6 -6 3 7 2 16 -1 19 -3 4 -6 -2 -5 -13z"/>
<path d="M7922 2369 c6 -16 12 -29 13 -27 6 6 -8 58 -16 58 -4 0 -3 -14 3 -31z"/>
<path d="M8134 2366 c-13 -14 -12 -62 1 -73 6 -4 7 -4 4 0 -4 5 -3 25 3 44 10
39 8 47 -8 29z"/>
<path d="M8212 2349 c6 -16 12 -28 14 -26 5 5 -13 57 -20 57 -3 0 0 -14 6 -31z"/>
<path d="M8030 2345 c0 -8 5 -15 10 -15 6 0 10 7 10 15 0 8 -4 15 -10 15 -5 0
-10 -7 -10 -15z"/>
<path d="M7971 2324 c0 -11 3 -14 6 -6 3 7 2 16 -1 19 -3 4 -6 -2 -5 -13z"/>
<path d="M8120 2259 c0 -5 5 -7 10 -4 6 3 10 8 10 11 0 2 -4 4 -10 4 -5 0 -10
-5 -10 -11z"/>
<path d="M8170 2226 c0 -8 4 -17 9 -20 5 -4 7 3 4 14 -6 23 -13 26 -13 6z"/>
<path d="M8230 2226 c0 -2 8 -10 18 -17 15 -13 16 -12 3 4 -13 16 -21 21 -21
13z"/>
<path d="M8159 2183 c0 -5 -2 -17 -3 -29 -1 -11 3 -21 10 -21 9 0 10 6 5 16
-5 9 -6 22 -4 29 3 6 2 12 -1 12 -3 0 -6 -3 -7 -7z"/>
<path d="M8221 1984 c0 -11 3 -14 6 -6 3 7 2 16 -1 19 -3 4 -6 -2 -5 -13z"/>
<path d="M4878 2243 c6 -2 18 -2 25 0 6 3 1 5 -13 5 -14 0 -19 -2 -12 -5z"/>
<path d="M4760 1502 c6 -13 14 -21 18 -18 3 4 -2 14 -12 24 -18 16 -18 16 -6
-6z"/>
<path d="M2956 1444 c-3 -9 -6 -18 -6 -20 0 -3 26 -4 57 -2 46 2 59 7 61 21 3
14 -5 17 -51 17 -41 0 -56 -4 -61 -16z"/>
<path d="M5190 1400 l0 -60 55 0 55 0 0 60 0 60 -55 0 -55 0 0 -60z"/>
<path d="M5496 9623 c-3 -10 -5 -38 -5 -63 2 -147 4 -170 17 -170 6 0 12 11
12 23 0 33 24 77 60 112 35 33 38 45 11 45 -13 0 -21 -8 -23 -22 -4 -33 -41
-31 -43 1 -1 14 -7 27 -14 29 -19 6 -2 22 25 22 26 0 31 9 12 28 -18 18 -46
15 -52 -5z"/>
<path d="M5761 9551 c-7 -12 -7 -22 -2 -26 5 -3 13 4 16 16 9 28 -1 36 -14 10z"/>
<path d="M5766 9228 c-16 -18 -16 -22 -3 -35 19 -19 37 -9 37 22 0 33 -13 38
-34 13z"/>
<path d="M6570 9070 c-249 -77 -487 -180 -693 -302 -74 -43 -348 -224 -386
-255 -10 -8 116 -443 129 -443 3 0 40 39 81 87 102 119 251 250 391 343 108
71 266 159 313 174 11 3 -17 -33 -63 -82 -159 -166 -271 -314 -353 -467 -36
-67 -109 -266 -109 -298 0 -21 134 -162 229 -241 83 -69 207 -156 222 -156 13
0 128 233 182 370 130 326 186 647 211 1203 4 96 3 107 -12 106 -9 0 -73 -18
-142 -39z"/>
<path d="M5847 9049 c-16 -18 -16 -19 2 -19 10 0 21 7 24 15 9 23 -8 26 -26 4z"/>
<path d="M5746 8953 c-20 -11 -25 -18 -16 -23 18 -11 54 4 58 24 4 19 -3 19
-42 -1z"/>
<path d="M5818 8948 c-9 -5 -4 -8 15 -8 15 0 27 4 27 8 0 11 -25 11 -42 0z"/>
<path d="M5550 8720 c0 -13 7 -20 20 -20 23 0 26 10 8 28 -18 18 -28 15 -28
-8z"/>
<path d="M1688 8623 c-10 -3 -15 -10 -11 -19 3 -8 -4 -17 -18 -23 -17 -7 -19
-10 -7 -10 9 -1 20 4 23 9 5 8 12 7 23 -2 15 -11 15 -11 5 3 -10 12 -10 18 -1
27 14 14 9 20 -14 15z"/>
<path d="M1720 8586 c0 -2 7 -7 16 -10 8 -3 12 -2 9 4 -6 10 -25 14 -25 6z"/>
<path d="M8266 8578 c3 -4 9 -8 15 -8 5 0 9 4 9 8 0 5 -7 9 -15 9 -8 0 -12 -4
-9 -9z"/>
<path d="M6113 8458 c-150 -103 -303 -242 -405 -365 -47 -58 -65 -73 -87 -73
-15 0 -32 5 -38 11 -6 6 -30 71 -54 145 -37 114 -46 134 -64 134 -19 0 -20 -5
-18 -122 3 -117 7 -164 20 -198 10 -26 14 -44 15 -77 2 -27 5 -30 20 -22 10 5
18 16 18 24 0 17 36 39 50 30 6 -3 10 -15 10 -26 0 -20 51 -49 85 -49 9 0 23
-6 31 -14 7 -8 23 -12 34 -9 23 6 27 23 5 23 -18 0 -20 24 -2 37 19 16 56 22
60 10 6 -19 37 2 37 26 0 16 9 28 25 35 14 6 25 17 25 24 0 7 13 40 29 74 25
53 27 62 13 70 -19 12 -8 34 18 34 10 0 27 15 38 34 19 32 19 35 4 39 -12 3
-11 5 5 6 14 1 33 17 54 49 18 26 63 84 101 130 38 45 67 82 65 82 -2 0 -44
-28 -94 -62z"/>
<path d="M6710 8306 c0 -9 5 -16 10 -16 6 0 10 4 10 9 0 6 -4 13 -10 16 -5 3
-10 -1 -10 -9z"/>
<path d="M6676 8154 c-9 -23 -2 -28 13 -10 7 8 8 17 3 20 -6 3 -13 -1 -16 -10z"/>
<path d="M6590 7802 c0 -6 -8 -13 -17 -15 -16 -4 -16 -5 -1 -6 18 -1 34 16 24
26 -3 4 -6 1 -6 -5z"/>
<path d="M6546 7743 c-6 -14 -5 -15 5 -6 7 7 10 15 7 18 -3 3 -9 -2 -12 -12z"/>
<path d="M6470 7578 c-81 -165 -104 -198 -137 -198 -33 1 -175 99 -299 208
-85 73 -104 84 -104 57 0 -9 -11 -20 -24 -26 -14 -7 -22 -17 -20 -24 11 -28
413 -355 436 -355 5 0 8 5 8 10 0 6 -7 10 -15 10 -19 0 -19 20 -1 46 15 19 15
19 30 -1 9 -11 21 -38 28 -60 15 -51 18 -54 52 -57 15 -1 32 -8 38 -15 14 -18
29 -16 22 2 -4 8 -1 15 6 15 13 0 40 -25 40 -37 0 -4 9 -14 20 -21 12 -7 20
-23 20 -40 0 -22 10 -33 50 -57 28 -16 78 -48 113 -70 59 -38 63 -39 80 -23
11 12 13 18 5 18 -7 1 -2 7 12 15 l25 14 -25 1 c-34 0 -13 17 33 25 24 5 37 4
37 -4 0 -6 -4 -11 -10 -11 -5 0 -10 -4 -10 -10 0 -15 16 -12 34 5 17 17 36 20
36 5 0 -5 11 -10 25 -10 14 0 25 -5 25 -11 0 -6 -15 -10 -32 -9 -52 3 -58 1
-58 -20 0 -11 4 -20 8 -20 7 0 180 66 327 125 49 20 55 24 31 25 -27 0 -28 2
-22 38 4 20 11 66 17 102 6 36 15 73 20 82 5 10 9 33 9 52 0 19 4 37 9 41 21
12 -3 183 -27 193 -9 3 -37 -2 -64 -12 -39 -14 -84 -17 -231 -17 -100 0 -205
4 -232 10 -28 5 -57 9 -65 8 -32 -2 -141 16 -146 25 -3 5 4 12 15 15 l22 6
-21 14 c-11 8 -20 23 -20 34 0 39 -17 17 -70 -93z m585 -49 c112 -13 132 -28
33 -23 -40 2 -147 5 -238 8 -91 3 -167 6 -170 8 -3 1 56 5 130 8 74 3 140 7
145 8 6 1 51 -3 100 -9z m-462 -70 c-8 -8 -16 -8 -30 0 -16 9 -14 10 12 11 21
0 26 -3 18 -11z m88 -40 c-24 -4 -48 -12 -55 -17 -16 -12 -56 -13 -56 -1 0 16
42 28 100 27 l55 0 -44 -9z m-203 -176 c-1 -10 1 -24 5 -30 6 -10 -2 -13 -32
-13 -22 0 -43 5 -46 10 -4 6 6 10 23 10 21 0 31 6 35 20 6 25 19 27 15 3z
m239 -39 c-3 -3 -12 -4 -19 -1 -8 3 -5 6 6 6 11 1 17 -2 13 -5z"/>
<path d="M8098 7473 c7 -3 16 -2 19 1 4 3 -2 6 -13 5 -11 0 -14 -3 -6 -6z"/>
<path d="M8160 7440 c0 -5 5 -10 10 -10 6 0 10 5 10 10 0 6 -4 10 -10 10 -5 0
-10 -4 -10 -10z"/>
<path d="M8133 7385 c-8 -22 1 -28 52 -33 35 -3 45 0 45 12 0 33 -85 51 -97
21z"/>
<path d="M7721 7301 c-33 -18 -33 -18 -10 -24 49 -13 71 -9 67 15 -4 29 -16
31 -57 9z"/>
<path d="M7485 7245 c-8 -19 -24 -39 -35 -45 -11 -6 -20 -17 -20 -24 0 -8 -11
-17 -24 -20 -13 -3 -26 -15 -29 -26 -6 -25 -7 -25 65 2 59 21 59 21 85 1 18
-13 40 -53 67 -120 l40 -101 50 20 c62 24 62 24 47 41 -6 8 -22 12 -36 9 -34
-6 -75 6 -75 22 0 8 7 27 15 42 8 16 15 43 15 59 1 17 7 63 14 103 l13 72 -26
0 c-15 0 -32 -5 -39 -12 -9 -9 -15 -9 -24 0 -7 7 -29 12 -51 12 -34 0 -40 -4
-52 -35z"/>
<path d="M2342 7258 c-5 -7 -9 -39 -9 -70 0 -55 2 -58 25 -58 22 0 24 3 18 31
-3 17 -6 49 -6 70 0 40 -10 49 -28 27z"/>
<path d="M7950 7260 c-12 -8 -9 -10 13 -10 16 0 26 4 22 10 -8 12 -16 12 -35
0z"/>
<path d="M1985 7127 c-237 -84 -402 -177 -528 -296 -76 -72 -92 -101 -106
-191 -29 -196 -44 -590 -23 -590 5 0 35 21 68 46 138 109 354 225 519 280 93
30 278 74 317 74 15 0 30 5 33 10 4 6 -5 59 -19 118 -32 135 -74 362 -89 489
-11 85 -15 98 -32 100 -11 1 -74 -17 -140 -40z"/>
<path d="M7863 7064 c-26 -13 -33 -23 -33 -46 0 -16 4 -28 8 -26 4 2 43 16 87
33 l79 29 -30 13 c-39 17 -73 16 -111 -3z"/>
<path d="M2350 6921 c0 -6 5 -13 10 -16 6 -3 10 1 10 9 0 9 -4 16 -10 16 -5 0
-10 -4 -10 -9z"/>
<path d="M6810 6904 c0 -11 6 -14 23 -8 47 14 53 23 15 24 -28 0 -38 -4 -38
-16z"/>
<path d="M7980 6635 c0 -5 5 -17 10 -25 5 -8 10 -10 10 -5 0 6 -5 17 -10 25
-5 8 -10 11 -10 5z"/>
<path d="M8180 6500 c-8 -5 -10 -10 -5 -10 6 0 17 5 25 10 8 5 11 10 5 10 -5
0 -17 -5 -25 -10z"/>
<path d="M8041 6483 c2 -22 15 -41 25 -35 6 5 4 13 -8 25 -10 9 -18 14 -17 10z"/>
<path d="M8889 6470 c-9 -5 -60 -25 -115 -45 -54 -20 -102 -39 -107 -44 -4 -4
11 -52 33 -107 22 -54 40 -103 40 -109 0 -5 9 -28 20 -50 11 -22 19 -43 20
-47 0 -9 105 -282 126 -328 9 -19 18 -42 19 -50 2 -8 34 -89 70 -180 36 -91
83 -210 104 -265 21 -55 42 -108 46 -117 5 -13 -2 -21 -32 -33 -21 -9 -42 -18
-48 -19 -10 -2 -157 -58 -163 -62 -4 -2 24 -90 38 -119 5 -11 19 -46 31 -78
17 -46 24 -57 38 -52 78 25 217 85 225 98 7 11 6 23 -2 39 -6 13 -27 65 -46
116 -31 83 -32 94 -18 99 131 48 227 92 227 104 0 8 -24 75 -53 149 -29 74
-82 212 -118 305 -61 156 -116 297 -181 465 -14 36 -36 90 -48 120 -13 30 -36
92 -51 137 -16 46 -31 83 -34 83 -3 0 -12 -5 -21 -10z"/>
<path d="M7455 6152 c-33 -12 -80 -31 -105 -42 -25 -10 -117 -46 -205 -80 -88
-34 -161 -63 -162 -64 -4 -4 52 -164 76 -221 25 -57 139 -179 155 -166 6 4 55
25 109 45 53 21 97 39 97 40 0 1 -12 31 -26 67 -14 35 -32 85 -41 111 -23 69
-10 84 121 132 58 21 106 39 106 40 0 1 -15 37 -33 81 l-32 80 -60 -23z"/>
<path d="M1556 5844 c-17 -12 -17 -14 -4 -14 9 0 20 5 23 11 11 17 2 18 -19 3z"/>
<path d="M1780 5768 c0 -4 6 -8 14 -8 8 0 17 4 20 8 2 4 -4 8 -15 8 -10 0 -19
-4 -19 -8z"/>
<path d="M1995 5760 c3 -5 8 -10 11 -10 2 0 4 5 4 10 0 6 -5 10 -11 10 -5 0
-7 -4 -4 -10z"/>
<path d="M1510 5741 c0 -6 -7 -11 -16 -11 -13 0 -14 -3 -5 -14 9 -11 9 -15 -1
-19 -7 -3 1 -5 17 -5 17 0 24 2 18 5 -16 6 -17 30 -1 35 9 3 9 6 0 12 -7 4
-12 2 -12 -3z"/>
<path d="M1660 5612 c-458 -307 -750 -570 -999 -902 -39 -52 -71 -99 -71 -105
0 -6 132 -52 293 -103 418 -134 668 -238 873 -362 l63 -38 72 126 c152 268
364 562 558 776 45 48 81 92 81 97 0 10 -156 136 -335 269 -79 58 -192 156
-259 222 -65 65 -121 118 -125 118 -3 -1 -71 -45 -151 -98z"/>
<path d="M290 5611 c0 -12 6 -21 16 -21 9 0 14 7 12 17 -5 25 -28 28 -28 4z"/>
<path d="M330 5551 c0 -6 5 -13 10 -16 6 -4 7 -13 1 -24 -7 -13 -6 -18 5 -18
16 0 16 1 18 40 1 20 -3 27 -16 27 -10 0 -18 -4 -18 -9z"/>
<path d="M295 5510 c3 -5 8 -10 11 -10 2 0 4 5 4 10 0 6 -5 10 -11 10 -5 0 -7
-4 -4 -10z"/>
<path d="M560 5510 c0 -5 5 -10 10 -10 6 0 10 5 10 10 0 6 -4 10 -10 10 -5 0
-10 -4 -10 -10z"/>
<path d="M701 5503 c1 -10 5 -29 9 -43 7 -21 8 -19 9 18 1 23 -3 42 -9 42 -5
0 -10 -8 -9 -17z"/>
<path d="M440 5490 c0 -5 -9 -10 -20 -10 -32 0 -70 -22 -70 -42 0 -19 -21 -24
-92 -19 -36 2 -38 1 -38 -27 0 -25 5 -31 33 -37 17 -4 37 -9 44 -10 7 -2 9 3
6 12 -4 10 -1 14 6 12 7 -3 12 -8 12 -12 -1 -4 -1 -16 -1 -27 0 -12 -7 -20
-17 -20 -16 0 -16 -1 0 -12 11 -9 14 -18 8 -27 -8 -12 -12 -10 -21 11 -8 16
-23 28 -39 31 -36 7 -39 0 -7 -15 22 -9 26 -17 21 -35 -5 -21 3 -28 28 -24 4
0 7 -3 7 -9 0 -6 11 -10 24 -10 37 0 247 -37 279 -49 15 -6 27 -15 27 -20 0
-14 36 -20 72 -12 31 7 79 4 199 -14 42 -7 49 -5 79 22 l33 30 -89 12 c-49 7
-105 15 -124 18 -19 3 -50 6 -67 6 -25 0 -33 5 -33 18 0 29 32 31 180 9 180
-26 181 -26 214 9 25 26 26 30 9 34 -10 3 -31 5 -48 6 -16 0 -99 9 -184 20
-85 11 -159 18 -164 14 -5 -3 -6 -18 -3 -34 6 -31 -8 -47 -27 -31 -9 8 -20 5
-37 -8 -20 -15 -22 -20 -11 -34 7 -9 10 -16 6 -16 -4 0 -13 7 -19 15 -7 10
-35 17 -81 21 -38 3 -79 9 -90 14 -35 15 -82 19 -92 9 -6 -6 -14 -5 -21 4 -18
21 16 47 64 50 50 3 172 -11 201 -23 20 -8 22 -7 19 13 -3 12 -5 29 -5 38 -1
12 -10 17 -32 15 -43 -2 -46 17 -7 33 22 9 28 15 17 18 -8 2 -28 -3 -43 -11
-16 -8 -34 -13 -40 -11 -59 18 -66 16 -66 -15 0 -16 -5 -30 -10 -30 -10 0 -8
29 5 69 6 19 59 36 77 25 5 -3 25 -3 44 0 25 5 34 12 34 26 0 16 -8 20 -42 22
-24 1 -53 1 -65 0 -13 0 -23 3 -23 9 0 5 -4 9 -10 9 -5 0 -10 -4 -10 -10z
m-49 -85 c-1 -15 -24 -12 -29 3 -3 9 2 13 12 10 10 -1 17 -7 17 -13z m281
-207 c-15 -15 -24 -6 -16 16 5 12 10 14 17 7 8 -8 8 -14 -1 -23z"/>
<path d="M758 5478 c-3 -7 -4 -23 -3 -35 1 -16 -6 -24 -24 -29 -22 -6 -16 -9
39 -20 63 -12 89 -7 76 15 -4 6 -18 11 -31 11 -23 0 -35 17 -35 51 0 21 -15
26 -22 7z"/>
<path d="M870 5390 c0 -5 5 -10 10 -10 6 0 10 5 10 10 0 6 -4 10 -10 10 -5 0
-10 -4 -10 -10z"/>
<path d="M307 5160 c-7 -26 3 -31 74 -37 33 -3 62 -10 65 -14 3 -5 17 -9 32
-9 15 0 34 -5 42 -10 13 -9 13 -11 0 -20 -17 -11 -136 -3 -162 11 -9 5 -38 9
-64 9 -41 0 -46 2 -41 20 9 34 -10 22 -32 -20 -12 -22 -21 -43 -21 -45 0 -2
16 -7 35 -11 34 -6 35 -7 35 -54 0 -65 23 -85 99 -84 31 0 66 6 79 13 24 13
96 8 142 -10 22 -8 26 -16 28 -63 3 -48 1 -54 -20 -60 -36 -9 -48 -7 -48 9 0
8 -4 15 -9 15 -18 0 -23 -21 -11 -51 10 -24 18 -29 44 -28 27 0 42 14 121 111
127 156 124 151 91 138 -19 -7 -32 -6 -46 2 -15 9 -26 8 -58 -6 -55 -25 -94
-19 -99 16 -3 22 0 25 17 21 11 -3 20 -9 20 -13 0 -4 7 -11 16 -14 12 -4 15
-2 10 9 -3 10 1 15 12 15 10 0 23 5 29 11 5 5 50 25 98 43 49 18 91 38 93 44
5 16 -110 16 -125 1 -8 -8 -22 -8 -49 0 -22 6 -74 14 -116 17 -69 6 -78 9 -78
27 0 12 -5 17 -14 14 -8 -3 -40 1 -73 8 -83 20 -110 19 -116 -5z m-50 -102
c-3 -8 -6 -5 -6 6 -1 11 2 17 5 13 3 -3 4 -12 1 -19z m308 -88 c-3 -5 -12 -10
-20 -10 -8 0 -17 5 -20 10 -4 6 5 10 20 10 15 0 24 -4 20 -10z"/>
<path d="M9676 3097 c3 -10 9 -15 12 -12 3 3 0 11 -7 18 -10 9 -11 8 -5 -6z"/>
<path d="M9290 3075 c0 -8 4 -15 10 -15 5 0 7 7 4 15 -4 8 -8 15 -10 15 -2 0
-4 -7 -4 -15z"/>
<path d="M577 3056 c-16 -13 -16 -14 0 -27 12 -10 15 -11 9 -1 -4 7 -2 19 4
27 15 18 11 19 -13 1z"/>
<path d="M1405 3029 c-4 -6 -5 -12 -2 -15 2 -3 7 2 10 11 7 17 1 20 -8 4z"/>
<path d="M8911 3024 c0 -11 3 -14 6 -6 3 7 2 16 -1 19 -3 4 -6 -2 -5 -13z"/>
<path d="M9375 3030 c3 -5 8 -10 11 -10 2 0 4 5 4 10 0 6 -5 10 -11 10 -5 0
-7 -4 -4 -10z"/>
<path d="M9586 2927 c4 -12 13 -38 20 -57 12 -34 13 -34 13 -7 l1 27 84 0 c93
0 116 5 116 26 0 8 6 14 14 14 8 0 17 3 19 8 3 4 -58 8 -134 9 -139 1 -140 1
-133 -20z"/>
<path d="M9280 2920 c0 -5 7 -10 16 -10 8 0 12 5 9 10 -3 6 -10 10 -16 10 -5
0 -9 -4 -9 -10z"/>
<path d="M436 2853 c-4 -9 -3 -20 2 -25 4 -4 9 4 10 17 2 29 -3 32 -12 8z"/>
<path d="M570 2854 c0 -8 5 -12 10 -9 6 4 8 11 5 16 -9 14 -15 11 -15 -7z"/>
<path d="M496 2733 c-6 -14 -5 -15 5 -6 7 7 10 15 7 18 -3 3 -9 -2 -12 -12z"/>
<path d="M342 2673 c-15 -48 -8 -55 8 -8 7 20 10 38 8 41 -3 2 -10 -13 -16
-33z"/>
<path d="M487 2679 c4 -13 8 -18 11 -10 2 7 -1 18 -6 23 -8 8 -9 4 -5 -13z"/>
<path d="M9360 2648 c0 -9 5 -20 10 -23 13 -8 13 5 0 25 -8 13 -10 13 -10 -2z"/>
<path d="M9380 2605 c0 -5 5 -17 10 -25 5 -8 10 -10 10 -5 0 6 -5 17 -10 25
-5 8 -10 11 -10 5z"/>
<path d="M9701 2560 c0 -8 4 -24 9 -35 5 -13 9 -14 9 -5 0 8 -4 24 -9 35 -5
13 -9 14 -9 5z"/>
<path d="M815 2549 c-4 -6 -5 -12 -2 -15 2 -3 7 2 10 11 7 17 1 20 -8 4z"/>
<path d="M9403 2538 c-2 -16 1 -18 10 -9 7 7 8 14 1 21 -6 6 -10 2 -11 -12z"/>
<path d="M9431 2504 c0 -11 3 -14 6 -6 3 7 2 16 -1 19 -3 4 -6 -2 -5 -13z"/>
<path d="M9470 2501 c0 -6 4 -13 10 -16 6 -3 7 1 4 9 -7 18 -14 21 -14 7z"/>
<path d="M271 2463 c-1 -6 -4 -20 -7 -30 -5 -17 -5 -17 6 0 6 10 9 23 6 30 -3
9 -5 9 -5 0z"/>
<path d="M9390 2460 c0 -5 5 -10 11 -10 5 0 7 5 4 10 -3 6 -8 10 -11 10 -2 0
-4 -4 -4 -10z"/>
<path d="M9630 2405 c0 -5 5 -17 10 -25 5 -8 10 -10 10 -5 0 6 -5 17 -10 25
-5 8 -10 11 -10 5z"/>
<path d="M9705 2388 c4 -13 11 -27 16 -33 5 -5 4 5 -2 23 -12 36 -24 44 -14
10z"/>
<path d="M291 2393 c0 -6 -4 -20 -7 -30 -5 -14 -4 -15 5 -7 7 7 11 20 8 30 -3
11 -5 14 -6 7z"/>
<path d="M9431 2364 c0 -11 3 -14 6 -6 3 7 2 16 -1 19 -3 4 -6 -2 -5 -13z"/>
<path d="M346 2354 c-7 -19 -8 -49 -1 -42 7 7 17 58 11 58 -2 0 -7 -7 -10 -16z"/>
<path d="M251 2329 c-6 -18 -11 -37 -10 -43 0 -6 7 7 15 28 8 22 12 41 10 43
-2 2 -9 -10 -15 -28z"/>
<path d="M216 2294 c-10 -31 -16 -58 -14 -60 3 -2 12 21 22 52 10 31 16 58 14
60 -3 2 -12 -21 -22 -52z"/>
<path d="M9721 2311 c-10 -6 -10 -10 -1 -16 13 -8 24 -1 19 14 -3 6 -10 7 -18
2z"/>
<path d="M9671 2295 c1 -19 18 -51 18 -35 0 8 -4 22 -9 30 -5 8 -9 11 -9 5z"/>
<path d="M373 2275 c-3 -9 -3 -18 -1 -21 3 -3 8 4 11 16 6 23 -1 27 -10 5z"/>
<path d="M9710 2278 c13 -15 40 -19 40 -6 0 6 -6 8 -14 5 -7 -3 -19 -1 -25 4
-8 6 -8 5 -1 -3z"/>
<path d="M9771 2254 c0 -11 3 -14 6 -6 3 7 2 16 -1 19 -3 4 -6 -2 -5 -13z"/>
<path d="M315 2250 c-3 -5 -1 -10 4 -10 6 0 11 5 11 10 0 6 -2 10 -4 10 -3 0
-8 -4 -11 -10z"/>
<path d="M242 2230 c-7 -11 -8 -20 -3 -20 9 0 24 30 18 36 -1 2 -8 -6 -15 -16z"/>
<path d="M9735 2237 c10 -8 15 -19 11 -25 -5 -8 -2 -10 8 -6 9 3 16 8 16 9 0
8 -33 35 -43 35 -6 0 -3 -6 8 -13z"/>
<path d="M9801 2234 c0 -11 3 -14 6 -6 3 7 2 16 -1 19 -3 4 -6 -2 -5 -13z"/>
<path d="M356 2223 c-6 -14 -5 -15 5 -6 7 7 10 15 7 18 -3 3 -9 -2 -12 -12z"/>
<path d="M301 2214 c0 -11 3 -14 6 -6 3 7 2 16 -1 19 -3 4 -6 -2 -5 -13z"/>
<path d="M9701 2194 c0 -11 3 -14 6 -6 3 7 2 16 -1 19 -3 4 -6 -2 -5 -13z"/>
<path d="M170 2155 c-7 -20 -10 -39 -7 -42 3 -3 10 12 16 33 14 49 7 56 -9 9z"/>
<path d="M200 2179 c0 -5 5 -7 10 -4 6 3 10 8 10 11 0 2 -4 4 -10 4 -5 0 -10
-5 -10 -11z"/>
<path d="M290 2169 c0 -5 5 -7 10 -4 6 3 10 8 10 11 0 2 -4 4 -10 4 -5 0 -10
-5 -10 -11z"/>
<path d="M165 1989 c-4 -6 -5 -12 -2 -15 2 -3 7 2 10 11 7 17 1 20 -8 4z"/>
<path d="M9891 1950 c0 -8 4 -24 9 -35 5 -13 9 -14 9 -5 0 8 -4 24 -9 35 -5
13 -9 14 -9 5z"/>
</g>
</svg>
